<svg width="125" height="32" viewBox="0 0 125 32" fill="none" xmlns="http://www.w3.org/2000/svg">
<path fill-rule="evenodd" clip-rule="evenodd" d="M12.7108 0.0580025C12.1694 0.209652 11.766 0.474792 10.8089 1.30788C9.90291 2.09649 9.60141 2.23342 8.09982 2.53852C7.54296 2.65163 6.95189 2.79603 6.78634 2.85937C6.0984 3.1226 5.63633 3.66067 5.16594 4.74648C4.49009 6.3063 4.33176 6.50881 3.0284 7.47997C2.14618 8.13737 1.84173 8.44214 1.62314 8.88679C1.4091 9.32222 1.36761 9.70581 1.38107 11.1247C1.39585 12.6751 1.40565 12.6346 0.685147 14.0137C0.156743 15.0252 0 15.4804 0 16.0034C0 16.5264 0.156743 16.9816 0.685147 17.993C1.40565 19.3722 1.39585 19.3317 1.38107 20.8821C1.36761 22.301 1.4091 22.6846 1.62314 23.12C1.84173 23.5646 2.14618 23.8694 3.0284 24.5268C4.33176 25.498 4.49009 25.7005 5.16594 27.2603C5.63633 28.3461 6.0984 28.8842 6.78634 29.1474C6.95189 29.2108 7.54296 29.3552 8.09982 29.4683C9.61066 29.7752 9.89924 29.9076 10.8363 30.7231C11.569 31.3608 12.0815 31.7221 12.4708 31.8751C12.9438 32.0611 13.6282 32.0391 14.4757 31.8106C16.3384 31.3085 16.4987 31.3085 18.3614 31.8106C19.2089 32.0391 19.8933 32.0611 20.3663 31.8751C20.7556 31.7221 21.2682 31.3608 22.0009 30.7231C22.9379 29.9076 23.2265 29.7752 24.7373 29.4683C25.2942 29.3552 25.8852 29.2108 26.0508 29.1474C26.7387 28.8842 27.2008 28.3461 27.6712 27.2603C28.347 25.7005 28.5054 25.498 29.8087 24.5268C30.6909 23.8694 30.9954 23.5646 31.214 23.12C31.428 22.6846 31.4695 22.301 31.4561 20.8821C31.4413 19.3317 31.4315 19.3722 32.152 17.993C32.6804 16.9816 32.8371 16.5264 32.8371 16.0034C32.8371 15.4804 32.6804 15.0252 32.152 14.0137C31.4315 12.6346 31.4413 12.6751 31.4561 11.1247C31.4695 9.70581 31.428 9.32222 31.214 8.88679C30.9954 8.44214 30.6909 8.13737 29.8087 7.47997C28.5054 6.50881 28.347 6.3063 27.6712 4.74648C27.2008 3.66067 26.7387 3.1226 26.0508 2.85937C25.8852 2.79603 25.2942 2.65163 24.7373 2.53852C23.2265 2.23157 22.9379 2.09921 22.0009 1.28368C21.2682 0.645956 20.7556 0.284658 20.3663 0.131647C19.8933 -0.0543442 19.2089 -0.0323219 18.3614 0.196133C16.5032 0.697033 16.3602 0.69736 14.4912 0.203873C13.7021 -0.00446683 13.1077 -0.0531995 12.7108 0.0580025ZM15.625 4.75334C11.5295 5.08177 7.95042 7.52391 6.20759 11.1792C5.45523 12.7571 5.12358 14.233 5.12358 16.0034C5.12358 17.0833 5.20496 17.7666 5.44899 18.7367C6.45819 22.7479 9.64711 25.9241 13.6743 26.9293C14.6483 27.1724 15.3343 27.2534 16.4186 27.2534C17.5028 27.2534 18.1888 27.1724 19.1628 26.9293C23.19 25.9241 26.3789 22.7479 27.3881 18.7367C27.6322 17.7666 27.7135 17.0833 27.7135 16.0034C27.7135 14.233 27.3819 12.7571 26.6295 11.1792C25.0139 7.79063 21.8389 5.44383 18.0807 4.86008C17.5215 4.77324 16.1309 4.71279 15.625 4.75334ZM14.9956 5.45604C12.6559 5.77569 10.5354 6.8235 8.86871 8.48357C6.84441 10.4998 5.7465 13.1441 5.7465 16.0034C5.7465 18.8626 6.84441 21.507 8.86871 23.5232C10.893 25.5395 13.5479 26.633 16.4186 26.633C19.2892 26.633 21.9441 25.5395 23.9684 23.5232C25.9927 21.507 27.0906 18.8626 27.0906 16.0034C27.0906 13.1441 25.9927 10.4998 23.9684 8.48357C22.2843 6.80617 20.1659 5.76648 17.7977 5.45512C17.0553 5.35749 15.7137 5.35798 14.9956 5.45604ZM44.4396 7.93721C42.9017 8.20927 41.5767 8.90946 40.3969 10.0736C39.7339 10.7279 39.2683 11.3535 38.8642 12.1331C38.2161 13.3837 37.9696 14.4501 37.9696 16.0034C37.9696 17.5567 38.2161 18.6231 38.8642 19.8737C39.2683 20.6533 39.7339 21.2789 40.3969 21.9332C41.9297 23.4457 43.7109 24.18 45.8473 24.18C47.4702 24.18 48.7262 23.8321 49.8917 23.0597C50.4224 22.7079 51.0814 22.0765 51.4722 21.5453L51.7458 21.1733L51.7605 22.4859L51.7752 23.7984H53.1424H54.5096V16.0034V8.20835H53.1424H51.7752L51.7605 9.52091L51.7458 10.8335L51.4722 10.4615C50.6705 9.3715 49.5085 8.54991 48.1829 8.13574C47.1763 7.82121 45.5754 7.73634 44.4396 7.93721ZM63.8408 7.86531C63.043 7.97313 62.1131 8.33334 61.4961 8.77346C61.1059 9.05185 60.5095 9.65446 60.2789 10.0033L60.1193 10.2448L60.1044 9.22655L60.0895 8.20835H58.7225H57.3555V16.0034V23.7984H58.7237H60.0919L60.0921 19.2332C60.0923 14.4076 60.1075 14.0495 60.3471 13.2254C60.5615 12.4885 60.8141 12.0612 61.3475 11.5331C61.841 11.0444 62.2067 10.8154 62.8284 10.6059C63.3254 10.4384 64.4569 10.3924 64.9628 10.5191C66.0752 10.7978 66.8396 11.5678 67.2154 12.7881L67.341 13.1961L67.3577 18.4973L67.3745 23.7984H68.7374H70.1004L70.1229 18.9606C70.1479 13.6141 70.1423 13.7043 70.5065 12.7403C71.0672 11.2564 72.2819 10.4433 73.9383 10.4433C75.0193 10.4433 75.6642 10.6907 76.351 11.3689C76.8165 11.8285 77.0349 12.213 77.2342 12.9235C77.3562 13.3589 77.3565 13.3687 77.3734 18.579L77.3903 23.7984H78.7587H80.1271L80.1084 18.361C80.09 13.0454 80.087 12.9122 79.9732 12.4178C79.6637 11.0726 79.1359 10.0956 78.2961 9.31312C77.2106 8.30172 75.915 7.82721 74.2393 7.82721C72.2319 7.82721 70.6504 8.5745 69.6404 10.0002C69.4908 10.2113 69.3561 10.3843 69.3411 10.3846C69.326 10.3849 69.186 10.1958 69.0299 9.96447C68.2562 8.81794 67.2147 8.14501 65.845 7.90663C65.424 7.83337 64.2554 7.80927 63.8408 7.86531ZM88.3866 7.91061C86.7979 8.16081 85.4037 8.88973 84.1698 10.1153C82.9554 11.3215 82.2314 12.6655 81.8926 14.3428C81.7519 15.0392 81.7519 16.9676 81.8926 17.664C82.2314 19.3412 82.9554 20.6853 84.1698 21.8915C85.4229 23.1361 86.8112 23.8541 88.4413 24.1007C89.0569 24.1939 90.2317 24.2038 90.8293 24.121C92.6391 23.8703 94.185 22.9875 95.2277 21.6093L95.556 21.1752V22.4868V23.7984H96.9243H98.2925V16.0034V8.20835H96.9243H95.556V9.51999V10.8316L95.2277 10.3975C94.185 9.0193 92.6391 8.13645 90.8293 7.88575C90.2594 7.80677 88.9619 7.82001 88.3866 7.91061ZM114.93 7.93721C113.209 8.2416 111.76 9.0742 110.481 10.494C109.286 11.8197 108.633 13.3765 108.471 15.2811C108.271 17.6332 108.988 19.8563 110.481 21.5128C112.101 23.3103 114.01 24.18 116.338 24.18C118.769 24.18 120.682 23.2826 121.967 21.5387L122.236 21.1733L122.251 22.4859L122.266 23.7984H123.633H125V16.0034V8.20835H123.633H122.266L122.251 9.52091L122.236 10.8335L121.967 10.468C120.944 9.08079 119.405 8.16725 117.659 7.91186C116.87 7.79635 115.663 7.80758 114.93 7.93721ZM107.673 8.01516C106.054 8.26564 104.948 8.99799 104.12 10.3669L103.93 10.6822V9.44525V8.20835H102.534H101.138V16.0034V23.7984H102.532H103.926L103.942 19.0696C103.959 14.3629 103.96 14.3388 104.082 13.9047C104.149 13.6649 104.304 13.2608 104.426 13.0068C104.608 12.6268 104.732 12.4621 105.123 12.0776C105.525 11.6828 105.688 11.5664 106.173 11.3276C106.84 10.9998 107.434 10.8459 108.239 10.7922L108.8 10.7548V9.34528V7.93579L108.458 7.94119C108.27 7.94413 107.917 7.97744 107.673 8.01516ZM14.2903 9.76103C13.56 9.92576 12.8296 10.235 12.2758 10.6139C11.8946 10.8746 11.0934 11.6595 10.7845 12.0748C9.9468 13.2006 9.55818 14.4455 9.55818 16.0034C9.55818 17.5613 9.9468 18.8062 10.7845 19.932C11.0934 20.3472 11.8946 21.1321 12.2758 21.3929C12.6852 21.673 13.3341 21.9779 13.8737 22.1439C14.3417 22.2878 14.4194 22.2952 15.4334 22.294C16.4395 22.2928 16.5287 22.2841 16.9905 22.1432C17.26 22.061 17.669 21.896 17.8996 21.7765C18.3405 21.548 19.015 21.0198 19.1734 20.779C19.2249 20.7008 19.291 20.6368 19.3204 20.6368C19.3524 20.6368 19.3739 20.911 19.3739 21.3182V21.9996H20.9063H22.4387V16.0034V10.0072H20.9063H19.3739V10.6886C19.3739 11.0958 19.3524 11.37 19.3204 11.37C19.291 11.37 19.2249 11.306 19.1734 11.2278C19.015 10.987 18.3405 10.4588 17.8996 10.2303C17.669 10.1108 17.26 9.9474 16.9905 9.86717C16.5612 9.73934 16.3856 9.71884 15.5703 9.70173C14.8944 9.6875 14.5443 9.70374 14.2903 9.76103ZM45.6162 10.479C44.2303 10.643 43.1799 11.1523 42.243 12.1146C41.1957 13.1905 40.7195 14.4058 40.7195 16.0034C40.7195 17.6009 41.1957 18.8163 42.243 19.8922C42.7225 20.3846 43.1538 20.706 43.7007 20.9783C45.1259 21.6878 46.9485 21.739 48.4742 21.1126C49.2717 20.7852 50.2045 20.026 50.757 19.255C51.8892 17.6745 52.0774 15.3754 51.2232 13.5589C50.5574 12.1432 49.1967 11.011 47.7165 10.6412C47.0497 10.4746 46.2049 10.4094 45.6162 10.479ZM89.2212 10.5014C87.0547 10.782 85.2568 12.3702 84.6818 14.5113C84.5517 14.9958 84.5373 15.1446 84.5373 16.0034C84.5373 16.8622 84.5517 17.011 84.6818 17.4955C85.0252 18.7741 85.8261 19.8979 86.9296 20.6493C88.696 21.8521 91.3564 21.8486 93.1416 20.6411C94.9325 19.4298 95.8126 17.3579 95.4968 15.0965C95.2189 13.1064 93.7858 11.3846 91.8756 10.746C91.0911 10.4836 90.0787 10.3904 89.2212 10.5014ZM116.107 10.479C114.721 10.643 113.67 11.1523 112.733 12.1146C111.686 13.1905 111.21 14.4058 111.21 16.0034C111.21 17.6009 111.686 18.8163 112.733 19.8922C113.667 20.8509 114.732 21.3695 116.074 21.5181C117.403 21.6653 118.718 21.3607 119.78 20.6597C121.516 19.5145 122.437 17.5298 122.215 15.4139C122.07 14.0355 121.56 12.9567 120.61 12.0202C119.448 10.8743 117.732 10.2868 116.107 10.479ZM15.4882 12.6211C14.3394 12.7839 13.4766 13.3968 12.9673 14.412C12.531 15.2816 12.531 16.7252 12.9673 17.5948C13.4032 18.4636 14.1312 19.06 15.0542 19.3048C15.5258 19.4298 16.4363 19.4295 16.9111 19.3041C18.0435 19.0052 18.9345 18.1184 19.2417 16.9846C19.3724 16.5022 19.3724 15.5046 19.2417 15.0222C18.9371 13.8982 18.0285 12.9876 16.9385 12.7142C16.516 12.6082 15.8712 12.5668 15.4882 12.6211Z" fill="black"/>
</svg>
