<svg width="33" height="32" viewBox="0 0 33 32" fill="none" xmlns="http://www.w3.org/2000/svg">
<path fill-rule="evenodd" clip-rule="evenodd" d="M22.312 0.0293265C21.9648 0.0643147 3.62632 3.87217 3.19585 3.99858C2.002 4.34928 0.974196 5.22838 0.41443 6.37756C-0.0319612 7.294 0.000651891 6.61716 0.000651891 14.9601C0.000651891 23.349 -0.0362582 22.6322 0.445391 23.5975C0.915526 24.5397 1.58228 25.1957 2.53478 25.6531C3.25926 26.001 3.75093 26.1151 4.518 26.1134C5.09936 26.112 5.50824 26.0321 14.5719 24.15C21.3021 22.7523 24.1435 22.1407 24.4499 22.0237C25.4392 21.6462 26.3603 20.808 26.861 19.8298C26.9491 19.6577 27.0895 19.2999 27.1731 19.0346L27.3251 18.5522V11.1761V3.80005L27.173 3.31707C26.8987 2.44664 26.5272 1.85179 25.8755 1.23982C25.1746 0.581626 24.2842 0.163686 23.3325 0.0462174C22.8686 -0.0110362 22.7338 -0.0132298 22.312 0.0293265ZM28.3305 5.88816C28.3077 5.91103 28.2889 8.73274 28.2885 12.1587C28.2878 18.0185 28.2816 18.417 28.1852 18.8824C27.9204 20.1594 27.208 21.3102 26.1824 22.1175C25.7391 22.4664 24.9663 22.8813 24.4605 23.042C24.309 23.0901 20.0698 23.9824 15.0401 25.025C10.0104 26.0676 5.83586 26.9353 5.7633 26.9533C5.63142 26.986 5.63136 26.9864 5.66442 27.5951C5.70045 28.2589 5.87326 28.96 6.12287 29.4548C6.4901 30.183 7.20247 30.9451 7.90288 31.3594C8.66295 31.8089 9.75025 32.0661 10.5488 31.9852C10.9915 31.9404 29.268 28.1631 29.8041 28.0056C30.998 27.6549 32.0258 26.7758 32.5856 25.6266C33.032 24.7102 32.9993 25.387 32.9993 17.044C32.9993 8.65514 33.0363 9.37196 32.5546 8.40666C32.0842 7.46395 31.4173 6.80795 30.4652 6.35151C30.1622 6.20624 29.7532 6.04978 29.5562 6.00382C29.1146 5.90077 28.3863 5.83206 28.3305 5.88816ZM23.7443 15.5998C23.5625 15.6397 23.358 15.6854 23.2898 15.7012C23.1917 15.724 23.1658 15.7682 23.1658 15.9134V16.0968L22.9042 15.9626C22.3606 15.6839 21.5474 15.8972 20.9911 16.4645C19.832 17.6464 20.1329 19.4965 21.5107 19.6589C21.9464 19.7103 22.4838 19.5182 22.8588 19.177L23.1658 18.8976V19.0677C23.1658 19.1937 23.1907 19.2372 23.2623 19.2357C23.3909 19.2332 24.0465 19.0922 24.0786 19.0603C24.0925 19.0464 24.0974 18.2458 24.0894 17.2811L24.0748 15.5272L23.7443 15.5998ZM14.8638 15.9999C14.2384 16.3795 14.5492 17.2681 15.1998 16.9607C15.5932 16.7749 15.7421 16.2846 15.4833 16.027C15.3191 15.8635 15.1039 15.8541 14.8638 15.9999ZM18.0701 16.737C17.2013 17.0113 16.5436 17.7598 16.3875 18.6518C16.2822 19.2542 16.4671 19.8343 16.8703 20.1662C17.0994 20.3549 17.5116 20.499 17.8222 20.499C18.0607 20.499 18.5373 20.3648 18.8354 20.2137C19.248 20.0044 19.8952 19.295 19.7711 19.188C19.6564 19.0891 19.0628 18.9051 19.0437 18.9625C19.0326 18.9954 18.9634 19.0935 18.8898 19.1806C18.6952 19.4109 18.3348 19.5667 17.9968 19.5667C17.7474 19.5667 17.6837 19.5424 17.5046 19.379C17.3005 19.1928 17.2988 19.1877 17.2988 18.762C17.2988 18.3782 17.3158 18.3078 17.4598 18.0965C17.7624 17.6523 18.3748 17.4292 18.7739 17.6177C18.8821 17.6688 18.9847 17.7474 19.0021 17.7925C19.0265 17.8557 19.1087 17.8157 19.3644 17.6156C19.8382 17.2451 19.846 17.2318 19.6895 17.0626C19.4627 16.8174 19.0534 16.6608 18.6485 16.6644C18.4515 16.6661 18.1913 16.6988 18.0701 16.737ZM22.0208 16.7291C21.745 16.8171 21.3693 17.1765 21.2627 17.4545C21.1973 17.6249 21.1765 17.8004 21.1937 18.0372C21.2161 18.3454 21.2372 18.3933 21.4264 18.566C21.6279 18.7498 21.6465 18.7552 22.0069 18.7349C22.4501 18.71 22.749 18.5425 22.9857 18.1865C23.1933 17.8742 23.2295 17.2732 23.0573 16.9996C22.8675 16.6979 22.4555 16.5905 22.0208 16.7291ZM12.5198 17.1673L12.0928 17.3949V17.7608V18.1266L11.7623 18.1913L11.4318 18.2561V18.6646C11.4318 19.122 11.4375 19.1265 11.8862 19.0227L12.0928 18.975L12.097 19.9152C12.1018 20.9778 12.1464 21.1764 12.4222 21.3627C12.6437 21.5123 12.9441 21.5224 13.4449 21.3972L13.8006 21.3083V20.8977C13.8006 20.5724 13.7849 20.4932 13.725 20.5162C13.6834 20.532 13.5387 20.5616 13.4034 20.5818C12.9926 20.6431 12.9686 20.587 12.9866 19.6038L13.0018 18.7742L13.4012 18.6938L13.8006 18.6134V18.1852C13.8006 17.9496 13.782 17.7579 13.7593 17.7589C13.7366 17.76 13.5692 17.7966 13.3874 17.8403C13.2056 17.884 13.0392 17.9202 13.0177 17.9206C12.9961 17.9211 12.9713 17.7006 12.9626 17.4306L12.9467 16.9397L12.5198 17.1673ZM15.0401 17.4764L14.6545 17.5673L14.64 19.3348C14.6317 20.3435 14.6465 21.1022 14.6745 21.1022C14.7015 21.1022 14.9002 21.0625 15.116 21.014L15.5084 20.9258V19.1494C15.5084 18.1724 15.4898 17.3758 15.4671 17.3792C15.4443 17.3826 15.2522 17.4263 15.0401 17.4764ZM10.2473 18.516L9.8617 18.608L9.84462 18.8124L9.8276 19.0168L9.67935 18.9098C9.15022 18.5278 8.23821 18.744 7.60925 19.4004C6.67091 20.3797 6.70919 21.8712 7.68566 22.3805C7.95989 22.5236 8.02787 22.5362 8.40182 22.5143C8.90319 22.485 9.26667 22.3278 9.60002 21.9961L9.83415 21.7632V21.9562V22.1492L10.0407 22.1111C10.1544 22.0902 10.3589 22.0459 10.4952 22.0127L10.7431 21.9523L10.7577 20.1837C10.7691 18.7855 10.7576 18.416 10.7026 18.4196C10.6643 18.422 10.4594 18.4654 10.2473 18.516ZM8.52588 19.6821C8.08583 19.8989 7.85082 20.2927 7.85115 20.8126C7.85159 21.4771 8.2939 21.7858 8.96054 21.587C9.24563 21.502 9.60531 21.1872 9.73025 20.9134C9.85332 20.6436 9.86445 20.1679 9.75262 19.9527C9.5467 19.5563 9.01789 19.4396 8.52588 19.6821Z" fill="black"/>
</svg>
