<svg width="144" height="32" viewBox="0 0 144 32" fill="none" xmlns="http://www.w3.org/2000/svg">
<path fill-rule="evenodd" clip-rule="evenodd" d="M5.48736 0.055236C5.04912 0.109782 4.39517 0.291227 4.04473 0.455493C3.15852 0.870797 2.72981 1.49168 2.40227 2.83434C2.31898 3.17579 2.29571 3.93806 2.2587 7.53661C2.2195 11.3551 2.20244 11.873 2.10497 12.2075C1.85295 13.0726 1.31033 13.7474 0.59485 14.0858L0.25 14.2489L0.251066 15.8301L0.252133 17.4114L0.611723 17.5658C1.05436 17.7559 1.59202 18.2499 1.79762 18.6555C1.88236 18.8227 2.01138 19.1754 2.08427 19.4394C2.21128 19.8992 2.21856 20.1036 2.25857 24.3394C2.30261 28.999 2.30411 29.0226 2.60556 29.9298C2.73659 30.3242 3.11719 30.9004 3.43538 31.1863C3.77095 31.4877 4.09968 31.652 4.69272 31.8144C5.11428 31.9299 5.39277 31.9495 6.94567 31.9731L8.71759 32V30.4355V28.871L8.01196 28.8381C7.10392 28.7956 6.69252 28.65 6.33588 28.245C5.86702 27.7126 5.87643 27.8039 5.8292 23.3362C5.7794 18.6296 5.77902 18.6265 5.16133 17.6819C4.85938 17.2201 4.55348 16.9413 3.7399 16.3864L3.19829 16.0169L3.98778 15.4322C4.87374 14.7758 5.21602 14.4261 5.43555 13.9527C5.773 13.2251 5.78335 13.0861 5.827 8.6965C5.8669 4.68434 5.86966 4.61581 6.00633 4.2738C6.17317 3.85624 6.50516 3.51654 6.92936 3.32939C7.17398 3.22149 7.40348 3.18469 7.97997 3.16099L8.71759 3.13058V1.57181V0.0129783L7.19656 0.0223829C6.35996 0.0275241 5.59085 0.0423204 5.48736 0.055236ZM29.4161 1.56529V3.13058L30.1538 3.16099C30.7302 3.18469 30.9597 3.22149 31.2044 3.32939C31.6286 3.51654 31.9606 3.85624 32.1274 4.2738C32.2641 4.61581 32.2668 4.68434 32.3067 8.6965C32.3504 13.0861 32.3607 13.2251 32.6982 13.9527C32.9177 14.4261 33.26 14.7758 34.1459 15.4322L34.9354 16.0169L34.3938 16.3864C33.5802 16.9413 33.2743 17.2201 32.9724 17.6819C32.3547 18.6265 32.3543 18.6296 32.3045 23.3362C32.2573 27.8039 32.2667 27.7126 31.7978 28.245C31.4412 28.65 31.0298 28.7956 30.1218 28.8381L29.4161 28.871V30.4355V32L31.1881 31.9731C32.741 31.9495 33.0194 31.9299 33.441 31.8144C34.034 31.652 34.3628 31.4877 34.6983 31.1863C35.0165 30.9004 35.3971 30.3242 35.5282 29.9298C35.8296 29.0226 35.8311 28.999 35.8751 24.3394C35.9152 20.1036 35.9224 19.8992 36.0495 19.4394C36.1223 19.1754 36.2514 18.8227 36.3361 18.6555C36.5417 18.2499 37.0794 17.7559 37.522 17.5658L37.8816 17.4114L37.8827 15.8301L37.8837 14.2489L37.5389 14.0858C36.8234 13.7474 36.2808 13.0726 36.0288 12.2075C35.9313 11.873 35.9142 11.3551 35.875 7.53661C35.838 3.93806 35.8147 3.17579 35.7315 2.83434C35.3367 1.21638 34.7664 0.580824 33.3568 0.18853C32.9612 0.0784338 32.6552 0.0564273 31.1567 0.0302827L29.4161 0V1.56529ZM81.727 7.99806V12.2213L81.2691 11.7755C80.7702 11.2898 80.3238 10.998 79.747 10.7804C79.4166 10.6558 79.259 10.6401 78.34 10.6401C77.1717 10.6401 76.7596 10.729 75.9251 11.1611C75.399 11.4336 74.468 12.3329 74.1481 12.8776C73.6211 13.7753 73.2271 15.0249 73.0376 16.3994C72.9028 17.3775 72.848 20.1859 72.9404 21.3827C73.248 25.3704 74.6631 27.5981 77.2244 28.1268C77.8317 28.2522 78.8751 28.2539 79.3998 28.1302C80.1891 27.9442 81.0415 27.376 81.6452 26.6333L81.9465 26.2626L82.0364 27.0878L82.1262 27.9131H84.1847H86.2431V15.8439V3.77479H83.985H81.727V7.99806ZM131.592 15.8439V27.9131H132.438H133.285L133.291 27.3645C133.295 27.0628 133.316 26.5782 133.338 26.2877L133.379 25.7594L133.624 26.1309C134.126 26.8917 134.926 27.541 135.795 27.8918C136.909 28.3416 138.694 28.3416 139.808 27.8918C141.783 27.0943 142.868 25.1917 143.197 21.9483C143.246 21.4649 143.261 20.4389 143.242 18.9075C143.217 16.9306 143.194 16.4875 143.081 15.8439C142.642 13.3291 141.71 11.8109 140.153 11.072C139.451 10.7384 139.062 10.6573 138.007 10.6249C137.251 10.6015 136.95 10.6179 136.564 10.7033C135.363 10.969 134.358 11.681 133.652 12.7658L133.411 13.1361V8.45543V3.77479H132.501H131.592V15.8439ZM48.0762 4.80647C46.9417 4.98478 46.0319 5.3219 45.1701 5.88329C43.4554 7.00042 42.2545 8.90685 41.7787 11.2671C41.5099 12.6008 41.4903 12.9534 41.4903 16.4709C41.4903 19.382 41.5061 19.9723 41.6031 20.6822C42.0618 24.0403 43.4552 26.3102 45.7533 27.4428C46.908 28.0119 47.9417 28.2256 49.5422 28.2262C51.8305 28.2271 53.658 27.6444 54.942 26.5045C56.4112 25.2002 57.1945 23.3852 57.4254 20.75L57.468 20.2641H55.1437H52.8195L52.7886 20.5305C52.6518 21.7106 52.6135 21.9705 52.5274 22.3005C52.2675 23.2964 51.7865 23.8947 51.0444 24.1452C50.441 24.3488 49.6409 24.4259 49.0061 24.3414C47.18 24.0986 46.4758 23.091 46.222 20.3581C46.1145 19.2011 46.18 12.5539 46.3053 11.894C46.6936 9.85069 47.3292 8.97299 48.6479 8.65926C49.1126 8.54879 50.2615 8.56778 50.7419 8.69399C52.0717 9.04321 52.5587 9.84536 52.7585 12.0153L52.831 12.8031H55.1513H57.4716L57.4309 12.3172C57.3 10.754 56.8556 9.22409 56.1994 8.07774C55.1076 6.17032 53.4095 5.09883 50.9726 4.77951C50.3166 4.69355 48.699 4.70866 48.0762 4.80647ZM104.495 16.4709V27.9131H110.109H115.723V27.0667V26.2203H111.019H106.314V15.6245V5.02873H105.405H104.495V16.4709ZM23.8652 5.18027C23.7617 5.22648 23.6012 5.34529 23.5085 5.44429C22.8322 6.16693 23.3417 7.34852 24.3295 7.34852C25.3292 7.34852 25.8438 6.17232 25.1626 5.44422C24.8467 5.10641 24.2863 4.99243 23.8652 5.18027ZM17.8397 5.58611C17.194 5.87928 16.8079 6.4685 16.8102 7.15704C16.8164 9.00748 19.3083 9.51526 20.0773 7.82282C20.2323 7.48181 20.2323 6.83904 20.0773 6.49803C19.784 5.85263 19.1946 5.46667 18.5057 5.46899C18.2426 5.46987 18.003 5.512 17.8397 5.58611ZM11.9016 6.69427C11.4228 6.95397 11.4306 7.75567 11.9144 8.00577C12.2903 8.20007 12.7727 8.0701 12.9503 7.72677C13.3078 7.03572 12.5846 6.3238 11.9016 6.69427ZM13.7123 9.75683C13.1776 9.98097 12.802 10.3251 12.5437 10.8275C12.3377 11.2281 12.3242 11.2916 12.3242 11.8564C12.3242 12.3777 12.3466 12.5062 12.4916 12.8154C12.7053 13.2711 13.1419 13.7075 13.5977 13.921C13.9063 14.0656 14.0361 14.0884 14.5508 14.0884C15.0655 14.0884 15.1954 14.0656 15.504 13.921C15.9598 13.7075 16.3964 13.2711 16.61 12.8154C16.7546 12.507 16.7775 12.3772 16.7775 11.8627C16.7775 11.3482 16.7546 11.2184 16.61 10.91C16.3961 10.4537 15.9592 10.0174 15.504 9.80536C14.9821 9.56228 14.2253 9.54178 13.7123 9.75683ZM23.025 9.70097C21.9515 10.0018 21.0423 10.9648 20.8194 12.0371C20.7166 12.5316 20.7762 13.3749 20.9455 13.8204C21.2376 14.5893 21.9687 15.3225 22.7534 15.6337C23.0565 15.7539 23.2298 15.776 23.8652 15.776C24.5005 15.776 24.6738 15.7539 24.9769 15.6337C25.7576 15.3241 26.4813 14.6007 26.7909 13.8204C26.9112 13.5174 26.9334 13.3442 26.9334 12.7091C26.9334 12.074 26.9112 11.9008 26.7909 11.5978C26.48 10.8142 25.7483 10.0848 24.9769 9.78943C24.5053 9.60887 23.5139 9.56391 23.025 9.70097ZM63.4779 10.7384C61.0453 11.2633 59.3352 13.0067 58.6144 15.6962C58.3267 16.7694 58.2478 17.5711 58.2478 19.4177C58.2478 20.6689 58.2751 21.2986 58.3525 21.8315C58.7623 24.6541 59.9864 26.581 62.0007 27.5744C62.852 27.9942 63.6192 28.1698 64.7792 28.2102C67.0569 28.2894 68.6484 27.7224 69.9281 26.3758C71.515 24.706 72.1761 22.3034 72.0413 18.6967C71.9478 16.194 71.5418 14.7047 70.5516 13.2303C69.7668 12.0617 68.4846 11.1701 67.0499 10.7952C66.254 10.5871 64.321 10.5565 63.4779 10.7384ZM93.1008 10.7016C91.8058 10.9365 90.7468 11.4957 89.8767 12.4043C88.7655 13.5646 88.1502 15.0279 87.8636 17.1919C87.7566 17.9999 87.7555 21.2433 87.862 21.9882C88.1315 23.874 88.8085 25.34 89.8907 26.3815C90.9603 27.411 92.1665 27.9614 93.8045 28.1675C94.552 28.2616 96.2062 28.2105 96.8119 28.0746C98.2976 27.7414 99.5939 27.0599 100.419 26.1785C100.626 25.9576 100.795 25.7471 100.795 25.7109C100.795 25.637 99.1054 23.0227 99.0577 23.0227C99.041 23.0227 98.8688 23.1639 98.6751 23.3365C97.3982 24.4741 95.1395 24.8591 93.7675 24.1729C93.5071 24.0427 93.245 23.8518 93.1092 23.6934C92.6689 23.1799 92.3516 22.2822 92.2811 21.3504L92.2463 20.8911H96.6865H101.127L101.089 19.1199C101.05 17.3146 100.966 16.4377 100.741 15.4906C100.103 12.8134 98.5908 11.2179 96.2359 10.7382C95.4867 10.5856 93.846 10.5664 93.1008 10.7016ZM121.619 10.7042C119.315 11.1767 117.626 12.981 117.437 15.17L117.398 15.6245H118.281H119.165L119.202 15.3267C119.269 14.8028 119.426 14.2767 119.617 13.943C120.004 13.2655 120.822 12.6541 121.681 12.3996C122.176 12.2531 123.072 12.2076 123.687 12.2976C125.039 12.4952 125.812 13.0595 126.202 14.1324C126.335 14.5001 126.347 14.6472 126.371 16.2672L126.396 18.007L124.556 18.0074C122.619 18.0077 121.926 18.0694 120.998 18.3234C119.218 18.8108 117.871 20.0319 117.345 21.6347C117.163 22.1865 117.144 22.3269 117.117 23.2505C117.073 24.7882 117.307 25.6996 117.978 26.6081C118.495 27.3077 119.274 27.8202 120.208 28.0743C120.767 28.2267 122.154 28.2645 122.788 28.1445C124.097 27.897 125.363 27.1004 126.136 26.0371L126.417 25.6507L126.462 26.1393C126.486 26.4079 126.554 26.917 126.612 27.2705L126.717 27.9131H127.68C128.21 27.9131 128.644 27.8913 128.644 27.8646C128.644 27.838 128.576 27.5488 128.494 27.222C128.229 26.1746 128.205 25.6093 128.204 20.5281C128.203 15.5247 128.168 14.5849 127.954 13.8179C127.485 12.1369 126.337 11.0985 124.537 10.7271C123.855 10.5864 122.254 10.5738 121.619 10.7042ZM136.319 12.4257C135.137 12.7354 134.246 13.5009 133.661 14.7091L133.411 15.2261V19.534V23.8419L133.575 24.169C134.393 25.7971 135.8 26.6027 137.676 26.5163C139.843 26.4165 140.979 25.1156 141.386 22.2704C141.504 21.4437 141.503 17.3911 141.385 16.565C140.961 13.5934 139.736 12.2967 137.362 12.3061C136.989 12.3076 136.599 12.3522 136.319 12.4257ZM64.4181 14.4458C63.4973 14.7992 62.9529 15.9076 62.7769 17.7876C62.6852 18.7666 62.7422 21.1779 62.8739 21.892C63.1203 23.2286 63.5439 23.9605 64.28 24.3218C64.5862 24.4722 64.7084 24.4957 65.1682 24.4929C65.5991 24.4904 65.761 24.4608 66.0123 24.3388C66.7847 23.964 67.2473 23.1308 67.4567 21.7375C67.5856 20.8793 67.5869 18.0264 67.4587 17.1761C67.348 16.4421 67.1234 15.7458 66.8584 15.3153C66.3257 14.4501 65.3308 14.0955 64.4181 14.4458ZM79.3267 14.3711C78.3885 14.5345 77.8574 15.1673 77.5763 16.4564C77.4712 16.9383 77.4445 17.3521 77.417 18.9268C77.3457 22.995 77.7518 24.1818 79.3141 24.4704C80.0131 24.5996 80.8379 24.3449 81.2943 23.8589C81.7637 23.3589 81.727 23.7318 81.727 19.4652V15.622L81.572 15.3765C81.0836 14.6032 80.2185 14.2158 79.3267 14.3711ZM93.9893 14.3655C93.4452 14.5157 93.035 14.8427 92.7936 15.319C92.5486 15.8023 92.2645 17.068 92.2645 17.6762C92.2645 17.7396 92.7273 17.7562 94.4915 17.7562H96.7185L96.6827 17.2076C96.5491 15.1614 96.0026 14.3738 94.6861 14.3304C94.4064 14.3211 94.0928 14.3369 93.9893 14.3655ZM18.6757 14.5941C18.1968 14.8538 18.2047 15.6555 18.6885 15.9056C19.0644 16.0999 19.5468 15.9699 19.7244 15.6266C20.0819 14.9355 19.3587 14.2236 18.6757 14.5941ZM10.9528 17.6707C10.5933 18.0301 10.8436 18.634 11.3519 18.634C11.5209 18.634 11.6316 18.5881 11.7511 18.4687C12.1106 18.1093 11.8603 17.5054 11.3519 17.5054C11.183 17.5054 11.0723 17.5512 10.9528 17.6707ZM15.7056 17.5913C15.4351 17.7137 15.0715 18.1045 14.9854 18.3654C14.7959 18.9393 15.027 19.6081 15.5331 19.9506C15.7301 20.084 15.8363 20.1073 16.2443 20.1073C16.6523 20.1073 16.7585 20.084 16.9555 19.9506C17.083 19.8644 17.2644 19.6834 17.3587 19.5484C17.5093 19.3329 17.5302 19.2444 17.5302 18.8221C17.5302 18.3997 17.5093 18.3112 17.3587 18.0957C17.0824 17.7002 16.7959 17.5428 16.3139 17.5218C16.0559 17.5105 15.8262 17.5368 15.7056 17.5913ZM25.4418 18.235C25.3223 18.3545 25.2764 18.4651 25.2764 18.634C25.2764 18.8029 25.3223 18.9135 25.4418 19.033C25.5613 19.1524 25.672 19.1982 25.8409 19.1982C26.0099 19.1982 26.1206 19.1524 26.2401 19.033C26.3596 18.9135 26.4054 18.8029 26.4054 18.634C26.4054 18.4651 26.3596 18.3545 26.2401 18.235C26.1206 18.1155 26.0099 18.0697 25.8409 18.0697C25.672 18.0697 25.5613 18.1155 25.4418 18.235ZM21.9282 19.4522C21.5349 19.5507 20.9465 19.8959 20.6265 20.2158C20.4551 20.3871 20.2277 20.7181 20.0899 20.9966C19.8545 21.4728 19.8509 21.4913 19.8509 22.2077C19.8509 22.9241 19.8545 22.9426 20.0899 23.4187C20.3983 24.0424 20.8066 24.4505 21.4305 24.7588C21.9068 24.9941 21.9254 24.9977 22.6421 24.9977C23.3587 24.9977 23.3773 24.9941 23.8536 24.7588C24.4775 24.4505 24.8858 24.0424 25.1942 23.4187C25.4296 22.9426 25.4332 22.9241 25.4332 22.2077C25.4332 21.4913 25.4296 21.4728 25.1942 20.9966C24.888 20.3776 24.4768 19.9645 23.866 19.6628C23.435 19.4498 23.3424 19.4283 22.7832 19.4105C22.4468 19.3999 22.0621 19.4186 21.9282 19.4522ZM122.591 19.556C121.479 19.7069 120.482 20.1436 119.883 20.7425C118.833 21.7919 118.549 23.6858 119.228 25.1074C119.766 26.2351 121.215 26.7656 122.883 26.4454C124.351 26.1638 125.589 25.2489 126.23 23.972L126.386 23.6629V21.5873V19.5117L124.582 19.5211C123.591 19.5263 122.694 19.542 122.591 19.556ZM13.336 22.9232C12.8013 23.1473 12.4256 23.4915 12.1673 23.9939C11.9614 24.3944 11.9478 24.4579 11.9478 25.0227C11.9478 25.544 11.9703 25.6725 12.1153 25.9818C12.3289 26.4374 12.7655 26.8738 13.2213 27.0874C13.5299 27.232 13.6598 27.2548 14.1745 27.2548C14.6892 27.2548 14.819 27.232 15.1276 27.0874C15.5834 26.8738 16.02 26.4374 16.2337 25.9818C16.3783 25.6733 16.4011 25.5435 16.4011 25.029C16.4011 24.5146 16.3783 24.3848 16.2337 24.0763C16.0197 23.6201 15.5829 23.1838 15.1276 22.9717C14.6058 22.7286 13.8489 22.7081 13.336 22.9232ZM19.9849 26.699C19.8654 26.8185 19.8195 26.9291 19.8195 27.098C19.8195 27.2669 19.8654 27.3775 19.9849 27.497C20.1044 27.6165 20.2151 27.6623 20.384 27.6623C20.553 27.6623 20.6637 27.6165 20.7832 27.497C20.9027 27.3775 20.9485 27.2669 20.9485 27.098C20.9485 26.9291 20.9027 26.8185 20.7832 26.699C20.6637 26.5796 20.553 26.5338 20.384 26.5338C20.2151 26.5338 20.1044 26.5796 19.9849 26.699Z" fill="black"/>
</svg>
