<svg width="138" height="32" viewBox="0 0 138 32" fill="none" xmlns="http://www.w3.org/2000/svg">
<path fill-rule="evenodd" clip-rule="evenodd" d="M0.5 8.20951C0.5 14.1245 0.516477 16.4355 0.559006 16.4779C0.591478 16.5103 4.14152 18.4788 8.448 20.8522L16.2779 25.1676L14.5544 26.8907L12.8308 28.6137L14.5649 30.3069C15.5186 31.2381 16.3151 32 16.3348 32C16.3545 32 17.151 31.2381 18.1047 30.3069L19.8388 28.6137L18.1153 26.8907L16.3917 25.1676L24.2216 20.8522C28.5281 18.4788 32.0781 16.5103 32.1106 16.4779C32.1531 16.4355 32.1696 14.1245 32.1696 8.20951C32.1696 3.69428 32.1574 0 32.1424 0C32.1275 0 28.5833 2.27502 24.2664 5.05563C19.9496 7.83624 16.3803 10.1113 16.3348 10.1113C16.2893 10.1113 12.72 7.83624 8.40317 5.05563C4.08632 2.27502 0.542155 0 0.527176 0C0.512251 0 0.5 3.69428 0.5 8.20951ZM57.393 7.24209C56.4032 7.36603 55.356 7.70957 54.6112 8.15464C52.7009 9.29607 51.4953 11.3106 51.074 14.0651C50.9364 14.9648 50.9369 17.1039 51.075 18.015C51.7413 22.4136 54.3395 24.8221 58.4162 24.8204C59.6686 24.8198 60.7286 24.6035 61.6852 24.1534C63.6961 23.2069 65.0569 21.304 65.5767 18.7121C65.7635 17.7801 65.8186 17.1636 65.8186 16.0018C65.8186 13.9136 65.5178 12.4312 64.7975 10.9691C63.5774 8.49257 61.3304 7.18401 58.349 7.21401C57.9114 7.21839 57.4812 7.23104 57.393 7.24209ZM38.0007 16.0133V24.447H39.7928H41.5849V21.0042V17.5613H44.0992H46.6135V16.2535V14.9458H44.0992H41.5849V12.5705V10.1952H44.4737C46.2093 10.1952 47.3625 10.1754 47.3625 10.1457C47.3625 10.1186 47.4467 9.53691 47.5497 8.85314C47.6527 8.16942 47.7369 7.60314 47.7369 7.59481C47.7369 7.58648 45.5463 7.57965 42.8688 7.57965H38.0007V16.0133ZM69.1353 7.62331C69.1353 7.64733 70.1109 9.42497 71.3032 11.5736L73.4712 15.4802L71.1091 19.9236C69.8099 22.3674 68.7366 24.385 68.724 24.407C68.7114 24.4291 69.5631 24.4466 70.6167 24.446L72.5323 24.445L74.0525 21.1365C74.8885 19.3169 75.5853 17.8408 75.6007 17.8562C75.6162 17.8717 76.317 19.355 77.1579 21.1523L78.6869 24.4204L80.6576 24.4343C82.2275 24.4455 82.6227 24.4347 82.601 24.381C82.586 24.3439 81.489 22.298 80.1632 19.8344C78.8375 17.3709 77.7611 15.3412 77.7714 15.324C78.1181 14.7435 82.1348 7.65646 82.1348 7.62507C82.1348 7.60009 81.2915 7.57965 80.2608 7.57965H78.3867L77.3863 9.62135C76.836 10.7443 76.2169 12.0062 76.0105 12.4255L75.6351 13.1879L74.3244 10.3846L73.0138 7.58125L71.0745 7.58045C70.008 7.58002 69.1353 7.59929 69.1353 7.62331ZM90.2127 16.0934V24.447H90.9346H91.6565L91.6702 20.377L91.6839 16.3069L95.6292 16.2933L99.5745 16.2795V20.3648V24.45L100.31 24.4352L101.046 24.4204V16.0934V7.76647L100.31 7.75163L99.5745 7.73679V11.395V15.0532L95.6292 15.0395L91.6839 15.0259L91.6701 11.3828L91.6564 7.73978H90.9346H90.2127V16.0934ZM108.615 13.8712C108.615 19.1016 108.627 20.0724 108.696 20.4767C108.931 21.8513 109.548 22.9498 110.488 23.6679C111.34 24.3194 112.302 24.63 113.671 24.6955C115.441 24.7802 116.871 24.3417 117.855 23.4124C118.576 22.7318 119.018 21.9791 119.301 20.9508L119.448 20.417L119.463 14.0769L119.478 7.73674L118.741 7.75163L118.004 7.76647L117.976 14.0117L117.949 20.2569L117.83 20.6839C117.764 20.9188 117.602 21.332 117.468 21.6022C117.019 22.5124 116.29 23.0659 115.222 23.3072C114.59 23.4499 113.403 23.4376 112.768 23.2815C111.386 22.9419 110.554 22.048 110.203 20.5252C110.094 20.0546 110.091 19.8998 110.074 13.8916L110.056 7.73978H109.336H108.615V13.8712ZM127.043 7.80651C127.029 7.84323 127.023 11.5963 127.031 16.1468L127.045 24.4204L129.532 24.4361C131.036 24.4456 132.262 24.4289 132.632 24.394C135.217 24.1499 136.807 23.0868 137.345 21.2429C137.493 20.7342 137.549 19.4641 137.45 18.8519C137.309 17.9746 136.966 17.2912 136.408 16.7698C135.818 16.2193 134.925 15.7782 134.173 15.6656C133.869 15.6201 133.884 15.5679 134.225 15.4821C134.716 15.3589 135.31 15.0019 135.738 14.5737C136.194 14.1178 136.423 13.7274 136.603 13.1024C136.763 12.5441 136.776 11.3758 136.628 10.8357C136.446 10.1753 136.189 9.7304 135.717 9.26105C134.865 8.41453 133.625 7.95249 131.779 7.79364C130.836 7.71251 127.075 7.7227 127.043 7.80651ZM128.516 12.0367V15.0525H130.513C132.337 15.0525 132.548 15.0432 132.934 14.9455C134.646 14.5123 135.523 13.0889 135.18 11.2999C134.935 10.0216 134.011 9.3242 132.236 9.07786C132.01 9.04653 131.08 9.02085 130.17 9.02085H128.516V12.0367ZM57.9012 9.92438C56.2526 10.1549 55.3002 11.3061 54.8959 13.5569C54.7382 14.4349 54.6965 16.791 54.8199 17.8549C55.0666 19.982 55.7344 21.2422 56.9115 21.802C57.4264 22.0468 57.7792 22.1194 58.4361 22.1159C60.2444 22.1063 61.3407 21.0731 61.7966 18.9489C61.989 18.0529 62.0416 17.4215 62.0416 16.0133C62.0416 14.6052 61.989 13.9738 61.7966 13.0778C61.3578 11.0331 60.3364 10.0132 58.6234 9.90922C58.388 9.89491 58.063 9.90174 57.9012 9.92438ZM128.516 19.7457V23.2193L130.134 23.2189C132.594 23.2182 133.447 23.1097 134.325 22.6863C135.09 22.317 135.547 21.8027 135.827 20.995C135.958 20.6193 135.973 20.5018 135.974 19.8299C135.975 19.2833 135.951 18.9894 135.883 18.7356C135.568 17.5655 134.759 16.8026 133.437 16.4301C133.064 16.3249 132.877 16.3154 130.776 16.2945L128.516 16.2721V19.7457Z" fill="black"/>
</svg>
