<svg width="139" height="32" viewBox="0 0 139 32" fill="none" xmlns="http://www.w3.org/2000/svg">
<path fill-rule="evenodd" clip-rule="evenodd" d="M15.3859 0.0203073C15.2829 0.031892 14.936 0.0666993 14.615 0.0976628C10.2481 0.518714 6.37623 2.53033 3.98455 5.62076C2.23319 7.88377 1.24137 10.4551 0.82354 13.8154C0.713653 14.6991 0.730344 17.5557 0.850718 18.472C1.35094 22.2801 2.82827 25.3558 5.30689 27.7497C7.65968 30.022 10.6873 31.3993 14.4229 31.8969C15.4572 32.0346 18.2603 32.0343 19.2913 31.8964C23.0924 31.3879 26.082 29.9985 28.4415 27.644C30.7867 25.3038 32.1907 22.3083 32.696 18.5667C32.8115 17.7113 32.8568 15.4225 32.7779 14.4281C32.3849 9.47764 30.4469 5.63491 27.0466 3.06408C24.9723 1.49577 22.4614 0.529017 19.3983 0.119284C18.7661 0.034668 15.8885 -0.0362812 15.3859 0.0203073ZM15.5464 2.93045C11.2038 3.23956 7.81066 5.05733 5.7412 8.18326C3.75477 11.1838 3.09063 15.9263 4.09652 19.9281C4.65966 22.1683 5.67502 23.9972 7.19558 25.5099C7.78583 26.0971 8.708 26.8373 9.17692 27.1003L9.39397 27.222L9.39557 21.1193L9.39713 15.0166L10.8267 14.2303L12.2562 13.444L12.2697 20.9677L12.2833 28.4915L12.4837 28.5472C13.2435 28.7583 14.7415 29.0303 15.1447 29.0303H15.3321L15.3457 17.7207L15.3591 6.41124L16.7769 7.19862L18.1946 7.98605L18.2081 18.5354L18.2216 29.0849L18.4221 29.0589C18.5324 29.0447 18.8393 29.0058 19.1041 28.9726C19.6784 28.9004 20.4461 28.7493 21.0167 28.5961L21.4313 28.4847V20.4827C21.4313 16.0817 21.4448 12.4808 21.4613 12.4808C21.4777 12.4808 22.1277 12.8338 22.9058 13.2651L24.3203 14.0495V20.6056C24.3203 24.2115 24.3401 27.1618 24.3643 27.1618C24.3884 27.1618 24.5871 27.0392 24.8056 26.8893C26.52 25.7138 27.8284 24.1382 28.707 22.1911C30.5898 18.0186 30.2524 11.9656 27.9321 8.29003C26.7872 6.47637 25.3499 5.19848 23.4003 4.26082C21.164 3.18532 18.4424 2.72433 15.5464 2.93045ZM104.269 3.80096C103.681 3.94318 103.166 4.37373 102.889 4.95344C102.736 5.27327 102.724 5.34438 102.724 5.86211C102.724 6.38759 102.735 6.44642 102.897 6.77527C103.106 7.19857 103.488 7.57349 103.916 7.77326C104.187 7.89994 104.286 7.91633 104.783 7.91633C105.304 7.91633 105.371 7.90384 105.705 7.74625C107.023 7.12313 107.319 5.39627 106.284 4.36364C105.747 3.82829 105.008 3.6219 104.269 3.80096ZM71.5602 14.0823V24.1722H73.1919H74.8236V14.0823V3.9925H73.1919H71.5602V14.0823ZM88.3954 4.02731C88.3754 4.04733 88.359 5.86382 88.359 8.064V12.0643L88.1156 11.7412C87.4511 10.8592 86.2672 10.3375 84.7432 10.2552C81.8372 10.0984 79.3041 11.8856 78.3352 14.7764C78.0438 15.646 77.96 16.215 77.958 17.3389C77.9554 18.8026 78.1467 19.7417 78.6713 20.8406C79.617 22.8216 81.222 24.0496 83.3495 24.4194C84.0878 24.5478 85.2868 24.497 85.9139 24.3109C86.9096 24.0153 87.8324 23.3913 88.2785 22.7119C88.4155 22.5033 88.445 22.5889 88.4872 23.315C88.5067 23.651 88.5366 23.9813 88.5536 24.049L88.5846 24.1722H90.1354H91.6862L91.6493 23.8919C91.6289 23.7378 91.5965 19.2033 91.5773 13.8154L91.5422 4.0192L89.987 4.00505C89.1317 3.99731 88.4155 4.00729 88.3954 4.02731ZM95.7775 4.02811C95.7579 4.04765 95.7419 8.58808 95.7419 14.118V24.1722H97.3736H99.0053V14.0823V3.9925H97.4093C96.5314 3.9925 95.7971 4.00852 95.7775 4.02811ZM60.4368 10.2395C58.8013 10.4679 57.4234 11.1504 56.3493 12.264C55.4212 13.2262 54.8198 14.3972 54.5106 15.8441C54.3733 16.4867 54.3739 18.2307 54.5118 18.9118C54.8119 20.3951 55.4254 21.5733 56.4198 22.5761C57.4074 23.572 58.5736 24.1837 60.0378 24.4739C60.7534 24.6157 62.2039 24.6023 62.9326 24.4472C65.8527 23.8256 67.913 21.6314 68.3789 18.6468C68.5114 17.7986 68.4647 16.3586 68.2795 15.5771C67.9669 14.258 67.3944 13.1945 66.4971 12.2656C65.5267 11.2611 64.3383 10.6233 62.8665 10.3169C62.3676 10.2131 60.9496 10.1679 60.4368 10.2395ZM131.24 10.2447C129.051 10.5628 127.172 11.9911 126.189 14.0838C125.243 16.097 125.285 18.8713 126.291 20.8774C127.065 22.421 128.408 23.6132 129.998 24.1672C133 25.2137 136.253 24.2805 137.824 21.9219C138.071 21.5517 138.508 20.6754 138.569 20.4277C138.602 20.2936 138.587 20.2812 138.265 20.1771C137.28 19.8589 135.881 19.4209 135.849 19.4209C135.829 19.4209 135.813 19.4542 135.813 19.4948C135.813 19.657 135.375 20.4262 135.121 20.7097C134.765 21.1073 134.341 21.3812 133.782 21.5745C133.403 21.7056 133.216 21.7365 132.683 21.7563C131.896 21.7855 131.418 21.6958 130.811 21.4052C129.676 20.862 128.971 19.8615 128.782 18.5267L128.75 18.2998H133.696C137.594 18.2998 138.651 18.2857 138.685 18.2331C138.709 18.1964 138.737 17.8068 138.747 17.3673C138.829 13.8245 137.168 11.2719 134.249 10.456C133.403 10.2195 132.062 10.1253 131.24 10.2447ZM116.66 10.3181C115.583 10.5565 114.6 11.1684 114.02 11.9631L113.744 12.3395L113.73 11.4759L113.715 10.6123H112.138H110.561V17.3922V24.1722H112.191H113.821L113.837 19.888C113.852 15.9968 113.862 15.5745 113.947 15.2835C114.346 13.9188 115.305 13.1732 116.658 13.1756C117.813 13.1776 118.661 13.6531 119.072 14.5289C119.387 15.1995 119.387 15.2009 119.388 19.888L119.389 24.1722H121.022H122.656L122.637 19.3275C122.62 14.9933 122.608 14.4433 122.527 14.109C122.036 12.0901 121.028 10.9391 119.297 10.4182C118.884 10.294 118.716 10.2746 117.917 10.259C117.264 10.2462 116.91 10.2629 116.66 10.3181ZM43.4998 10.4061C40.6181 10.7694 38.4789 13.0405 38.1195 16.1182C37.9981 17.1582 38.1438 18.5038 38.4784 19.4334C39.1273 21.2355 40.4429 22.5754 42.1676 23.1905C42.4489 23.2908 42.8998 23.412 43.1696 23.4599C43.7475 23.5624 44.8464 23.5741 45.3455 23.4831C46.5736 23.2593 47.5271 22.6853 48.196 21.7672C48.2882 21.6405 48.2905 21.6709 48.2677 22.7308C48.2427 23.8995 48.1997 24.2286 47.9876 24.8765C47.7598 25.5728 47.273 26.1911 46.6822 26.5348C46.0986 26.8742 44.9599 27.1011 44.186 27.0321C43.0768 26.9332 42.1955 26.4488 41.6346 25.6298C41.3865 25.2675 41.0677 24.4838 41.0663 24.2327C41.0657 24.1276 41.0453 24.1119 40.9452 24.1393C40.879 24.1574 40.2049 24.3338 39.4472 24.5314C37.8603 24.9453 37.9844 24.8417 38.1804 25.5886C38.7337 27.6965 40.6376 29.3061 43.118 29.763C43.8048 29.8896 45.392 29.8852 46.1213 29.7548C49.0103 29.2383 50.7095 27.5826 51.352 24.6581C51.4626 24.1547 51.465 24.0246 51.4832 17.3789L51.5018 10.6123H49.9216H48.3415V11.419V12.2256L48.1023 11.9014C47.7911 11.4796 47.3601 11.1425 46.7632 10.8543C45.8481 10.4124 44.7004 10.2547 43.4998 10.4061ZM103.178 17.3922V24.1722H104.783H106.388V17.3922V10.6123H104.783H103.178V17.3922ZM131.399 12.9922C130.106 13.2787 129.076 14.3658 128.884 15.646L128.846 15.8975H132.172H135.498L135.464 15.6439C135.285 14.3165 134.464 13.3652 133.218 13.0399C132.74 12.9152 131.852 12.8919 131.399 12.9922ZM60.7266 13.1978C59.9303 13.3549 59.3797 13.6423 58.821 14.1926C58.4739 14.5344 58.3697 14.682 58.1423 15.1535C57.7785 15.908 57.698 16.251 57.6665 17.1787C57.6449 17.8152 57.659 18.0434 57.7459 18.4626C58.0228 19.7994 58.6986 20.7436 59.749 21.2609C60.8532 21.8048 61.9939 21.8034 63.1037 21.2567C63.9835 20.8233 64.597 20.0864 64.9243 19.07C65.4482 17.4431 65.1687 15.5613 64.2333 14.4183C63.961 14.0856 63.4862 13.7113 63.0726 13.5033C62.4597 13.1951 61.4234 13.0602 60.7266 13.1978ZM84.3733 13.156C82.9971 13.3766 81.9363 14.2594 81.4824 15.5619C81.119 16.6047 81.1015 18.0208 81.4389 19.0739C81.8012 20.2044 82.6052 21.0857 83.5843 21.4254C84.8611 21.8686 86.1696 21.6176 87.097 20.752C88.3034 19.6259 88.7396 17.4745 88.1408 15.6038C87.7547 14.3973 86.9127 13.5549 85.791 13.2529C85.4811 13.1695 84.6455 13.1123 84.3733 13.156ZM43.967 13.278C43.3355 13.4328 42.9132 13.6751 42.4298 14.1602C41.7909 14.8012 41.4832 15.5002 41.3886 16.5256C41.1967 18.6052 42.2382 20.274 43.9794 20.6769C44.4531 20.7866 45.2751 20.7865 45.7501 20.6768C46.838 20.4255 47.675 19.6679 48.0747 18.5725C48.2884 17.987 48.3613 17.448 48.3264 16.7116C48.2732 15.5858 47.9609 14.823 47.2693 14.1293C46.8175 13.676 46.3289 13.4014 45.7192 13.258C45.2572 13.1493 44.4544 13.1585 43.967 13.278Z" fill="black"/>
</svg>
