<svg width="80" height="32" viewBox="0 0 80 32" fill="none" xmlns="http://www.w3.org/2000/svg">
<path fill-rule="evenodd" clip-rule="evenodd" d="M19.4535 0.0857067C17.2499 0.48352 15.3804 2.08955 14.6793 4.18688C14.3588 5.14571 14.3536 5.23093 14.3536 9.52699V13.44H18.2677C22.5649 13.44 22.6502 13.4348 23.6093 13.1144C25.3906 12.5193 26.8763 11.034 27.4716 9.25312C27.7921 8.29429 27.7973 8.20907 27.7973 3.91301V0L23.8362 0.0048C20.6539 0.00864 19.7922 0.0245333 19.4535 0.0857067ZM3.15056 6.20352C3.15056 8.06672 3.17185 9.32725 3.20663 9.52352C3.55574 11.4939 5.09723 13.0349 7.06811 13.3839C7.26443 13.4187 8.52531 13.44 10.389 13.44H13.3934V10.4365C13.3934 8.57328 13.3721 7.31275 13.3373 7.11648C12.9882 5.14613 11.4467 3.60507 9.47581 3.25605C9.27949 3.22128 8.01861 3.2 6.1549 3.2H3.15056V6.20352ZM40.094 5.54453C39.3604 5.68261 38.6703 5.81264 38.5602 5.83349L38.3602 5.87152V14.9646C38.3602 25.0554 38.3407 24.4883 38.713 25.267C38.9326 25.7265 39.4138 26.2648 39.7835 26.4647C39.9249 26.5411 40.2207 26.6598 40.4407 26.7285C40.7975 26.8398 40.9419 26.8531 41.7744 26.8515C42.2879 26.8504 42.8977 26.8182 43.1296 26.7799C43.5962 26.7028 44.6575 26.4175 44.7249 26.3511C44.7485 26.3278 44.6765 25.8357 44.5648 25.2575C44.3621 24.2078 44.3616 24.2063 44.2284 24.2298C44.1551 24.2426 43.867 24.2947 43.5882 24.3456C42.9833 24.4559 42.4487 24.4333 42.1922 24.2866C42.0826 24.2238 41.9634 24.083 41.8811 23.9191L41.7477 23.6533L41.7331 14.4667L41.7185 5.28L41.573 5.28677C41.4931 5.29051 40.8275 5.40651 40.094 5.54453ZM46.8324 5.51515C46.2364 5.68699 45.7956 6.12816 45.6019 6.74667C45.3257 7.62832 45.5247 8.51141 46.1227 9.05781C46.4524 9.35904 46.7604 9.4848 47.2798 9.53035C48.2311 9.61376 48.9432 9.23248 49.3383 8.42827C49.4725 8.15515 49.4832 8.08395 49.4832 7.46667C49.4832 6.85781 49.471 6.77403 49.3426 6.50027C49.1529 6.09573 48.8671 5.79269 48.5112 5.61861C48.2561 5.49387 48.1382 5.47195 47.6491 5.45856C47.2869 5.44864 46.9923 5.46907 46.8324 5.51515ZM71.5215 11.8723C69.0456 12.3193 67.0575 14.1004 66.2144 16.6267C65.8404 17.7473 65.6981 19.0127 65.7841 20.4539C65.8393 21.3787 65.8433 21.4111 66.0043 22.24C66.4765 24.671 67.7629 26.2345 69.7245 26.7614C70.1777 26.8831 70.3412 26.899 71.1691 26.9023C72.1534 26.9062 72.5932 26.8443 73.2027 26.6163C74.2954 26.2076 75.1529 25.2558 75.6798 23.867C75.8142 23.5126 75.8226 23.5219 75.9159 24.1307C76.0622 25.0848 76.6681 26.3649 77.213 26.871L77.3469 26.9953L78.6156 26.4843C79.3134 26.2033 79.9034 25.9733 79.9267 25.9733C79.9499 25.9733 79.9761 26.3873 79.9849 26.8933C79.9937 27.3993 80.0005 26.0133 80 23.8133C79.9993 20.7799 79.9956 20.5479 79.9847 22.8533L79.9703 25.8933L79.8614 25.7333C79.3856 25.034 78.9639 23.7144 78.7075 22.1229C78.6322 21.6552 78.6144 20.9062 78.5884 17.0948L78.5578 12.6162L78.051 12.4937C77.3382 12.3213 75.6136 12.0163 74.648 11.8918C73.6668 11.7653 72.1658 11.7559 71.5215 11.8723ZM45.8409 18.2267L45.8555 24.4533L45.998 24.843C46.2519 25.538 46.6735 26.0837 47.2273 26.4343C47.9819 26.912 49.5132 27.0159 50.6457 26.6662C51.212 26.4914 51.1875 26.5831 50.9871 25.3867L50.8129 24.3467H50.2526C49.6087 24.3467 49.4537 24.2827 49.3053 23.9558C49.2244 23.7775 49.2151 23.2343 49.2018 17.88L49.187 12H47.5067H45.8263L45.8409 18.2267ZM52.1773 17.2681C52.1773 20.5866 52.1978 22.7034 52.2327 22.9881C52.3934 24.2981 52.8793 25.3788 53.5941 26.0157C54.3712 26.7081 55.4695 26.9645 57.2614 26.8717C58.4796 26.8086 59.6647 26.5281 60.4995 26.1054C62.5657 25.059 63.8137 22.8598 64.3124 19.3867C64.5541 17.703 64.6623 15.3822 64.5597 14.08C64.4974 13.2897 64.3511 12.1135 64.306 12.0406C64.2922 12.0182 63.5029 12 62.5519 12C61.1914 12 60.8281 12.0142 60.8471 12.0667C60.8605 12.1034 60.9227 12.4813 60.9854 12.9067C61.0723 13.4955 61.1057 14.0347 61.1257 15.1666C61.2026 19.5261 60.4812 22.5863 59.0641 23.9104C58.4368 24.4965 57.4818 24.6703 56.6714 24.3457C56.1978 24.156 55.7973 23.5037 55.6444 22.6727C55.6118 22.4956 55.5915 20.3936 55.5915 17.1927V12H53.8844H52.1773V17.2681ZM72.6362 14.1878C71.1949 14.3419 70.2345 15.151 69.757 16.6134C69.5062 17.3815 69.4347 18.0697 69.4411 19.6533C69.4492 21.6572 69.5703 22.5095 69.9653 23.3433C70.3262 24.1047 70.8426 24.4787 71.593 24.5222C72.339 24.5653 72.8474 24.3412 73.473 23.6935C74.0686 23.0767 74.4969 22.293 74.7922 21.28C75.1179 20.1623 75.1277 20.0505 75.1546 17.1428L75.1794 14.4723L74.6546 14.3543C74.1449 14.2398 73.3326 14.1271 73.1163 14.141C73.0576 14.1447 72.8415 14.1658 72.6362 14.1878ZM5.04959 14.4857C2.74624 14.9015 0.898751 16.5601 0.178555 18.8587L0.0298748 19.3333L0.0149374 23.5867L0 27.84H3.8889C8.15854 27.84 8.24689 27.8346 9.20533 27.5144C10.9867 26.9193 12.4724 25.434 13.0677 23.6531C13.3882 22.6943 13.3934 22.6091 13.3934 18.313V14.4L9.43228 14.4048C6.24997 14.4086 5.38829 14.4245 5.04959 14.4857ZM14.3536 19.4732C14.3536 23.7711 14.3662 24.631 14.4359 25.1007C14.9532 28.5834 17.7711 31.4005 21.2548 31.9177C21.7246 31.9874 22.5848 32 26.8839 32H31.9584V26.9268C31.9584 22.6289 31.9458 21.769 31.8761 21.2993C31.3588 17.8166 28.5409 14.9995 25.0572 14.4823C24.5874 14.4126 23.7273 14.4 19.4282 14.4H14.3536V19.4732Z" fill="black"/>
</svg>
