<svg width="129" height="32" viewBox="0 0 129 32" fill="none" xmlns="http://www.w3.org/2000/svg">
<path fill-rule="evenodd" clip-rule="evenodd" d="M10.6261 0.0127496C10.0077 0.0799458 9.24749 0.223205 8.67325 0.380833C4.79216 1.44582 1.68974 4.55218 0.626094 8.43818C0.237457 9.8579 0.250047 9.60477 0.250047 16.0021C0.250047 22.3995 0.237457 22.1464 0.626094 23.5661C1.68974 27.4521 4.79216 30.5584 8.67325 31.6234C10.0912 32.0126 9.83836 32 16.2276 32C22.6169 32 22.3641 32.0126 23.782 31.6234C27.6631 30.5584 30.7655 27.4521 31.8292 23.5661C32.2178 22.1464 32.2052 22.3995 32.2052 16.0021C32.2052 10.6829 32.198 10.2172 32.1075 9.67896C31.7889 7.78417 31.0529 6.07093 29.8906 4.51853C29.5167 4.01899 28.5999 3.0635 28.0711 2.62208C26.5677 1.36709 24.7467 0.519125 22.7094 0.125402C22.1362 0.0146191 21.9909 0.0117347 16.4677 0.0022268C13.3575 -0.00316812 10.7288 0.00158582 10.6261 0.0127496ZM95.5288 4.21561C94.8989 4.42526 94.424 4.83832 94.152 5.41307C93.9976 5.73954 93.9817 5.82057 93.9817 6.28171C93.9817 6.74706 93.9964 6.82013 94.1543 7.14126C94.3639 7.56762 94.7763 7.99345 95.1628 8.1828C95.777 8.48369 96.6744 8.47648 97.3159 8.1656C97.6821 7.98816 98.1605 7.51372 98.3281 7.16193C98.5012 6.79855 98.5438 5.99097 98.411 5.59073C98.2327 5.053 97.6989 4.51767 97.1025 4.27848C96.7886 4.15258 95.8329 4.11439 95.5288 4.21561ZM10.6795 12.1283V17.9655L9.86594 17.9928C8.94191 18.0238 8.58091 18.1078 7.87608 18.4556C7.26504 18.7571 6.79024 19.2072 6.53279 19.729C6.34212 20.1155 6.33172 20.1631 6.33311 20.6467C6.33439 21.0921 6.35381 21.1988 6.48643 21.489C6.85389 22.2932 7.62961 22.7146 8.97936 22.8435C10.3259 22.972 11.2456 22.6493 12.1795 21.7204C12.6122 21.2901 12.7264 21.1389 12.9082 20.7561C13.0268 20.5064 13.15 20.1747 13.182 20.019C13.2206 19.8311 13.2402 18.5287 13.2402 16.1471V12.5583L14.3177 13.6793C14.9103 14.2958 15.7381 15.1488 16.1573 15.5748L16.9195 16.3493L18.8408 14.4267L20.7622 12.504V19.2474V25.9908H22.0425H23.3229V16.1492V6.30761L20.1225 9.51166L16.9222 12.7157L16.7969 12.5829C16.4856 12.2529 12.5835 8.23296 11.6825 7.31411L10.6795 6.29116V12.1283ZM44.3667 10.7913C43.0415 10.9976 41.962 11.7418 41.2157 12.9639L41.0076 13.3047L40.9932 12.1963L40.9787 11.0879H39.2994H37.62V18.1922V25.2964H39.4051H41.1901L41.2072 20.9564L41.2241 16.6164L41.3462 16.2166C41.7016 15.053 42.4759 14.2785 43.5416 14.0208C43.9599 13.9196 44.8865 13.9297 45.2487 14.0394C46.0627 14.286 46.5522 14.9374 46.7408 16.0253C46.7756 16.2258 46.7958 17.9879 46.7958 20.82V25.2978L48.5696 25.2837L50.3434 25.2697L50.3711 20.9697C50.3984 16.7364 50.4007 16.6634 50.5169 16.2509C50.9114 14.851 51.7923 14.0624 53.0908 13.9465C53.8753 13.8764 54.6227 14.087 55.0822 14.5075C55.4182 14.815 55.6628 15.2489 55.8248 15.8251C55.9408 16.2377 55.9423 16.2939 55.9591 20.7701L55.9761 25.2978L57.7476 25.2837L59.5192 25.2697L59.5188 20.5157C59.5183 15.7822 59.5178 15.7588 59.395 15.076C59.0798 13.3235 58.4239 12.19 57.307 11.4672C56.5973 11.0079 55.8033 10.7794 54.7446 10.7298C52.6701 10.6327 51.1101 11.3534 50.0576 12.8952L49.7901 13.2871L49.6724 13.0555C49.2116 12.1481 48.4887 11.4674 47.6076 11.111C46.7027 10.745 45.4548 10.622 44.3667 10.7913ZM108.021 10.7668C104.242 11.2442 101.661 13.8601 101.375 17.5018C101.195 19.8003 101.867 21.7913 103.349 23.3429C104.361 24.4034 105.689 25.1177 107.292 25.4639C107.762 25.5655 108.019 25.5853 108.892 25.5875C109.792 25.5898 110.007 25.5734 110.484 25.4664C111.705 25.1926 112.903 24.6571 113.692 24.0326C113.932 23.8431 114.12 23.6666 114.111 23.6402C114.101 23.6139 113.574 23.03 112.938 22.3427L111.782 21.0931L111.406 21.4554C109.527 23.2639 106.199 22.3948 105.211 19.8378C104.982 19.2445 104.872 18.5449 104.91 17.9251C104.953 17.2416 105.063 16.8288 105.383 16.1645C105.619 15.6721 105.709 15.5482 106.138 15.12C106.547 14.7122 106.706 14.5943 107.132 14.3848C107.681 14.1146 108.107 13.997 108.732 13.9435C109.637 13.8661 110.57 14.2664 111.427 15.0996L111.695 15.3599L112.939 14.1132L114.184 12.8666L113.785 12.5052C112.848 11.6556 111.848 11.1599 110.481 10.8676C109.917 10.7469 108.605 10.6932 108.021 10.7668ZM121.109 10.7693C119.17 11.0053 117.598 11.6658 116.485 12.7127L116.174 13.0049L117.112 13.9467L118.05 14.8885L118.339 14.6392C118.929 14.1305 119.821 13.7049 120.707 13.5092C121.248 13.3898 122.308 13.391 122.843 13.5118C124.302 13.8411 125.049 14.7494 125.056 16.2024L125.057 16.4295L123.87 16.4299C119.446 16.4316 116.937 17.2773 115.832 19.1391C115.413 19.8457 115.266 20.5253 115.307 21.5661C115.339 22.3851 115.491 22.8972 115.878 23.4873C116.588 24.5702 117.798 25.2871 119.341 25.5401C120.13 25.6694 121.315 25.6253 122.022 25.4403C123.203 25.1314 124.194 24.4694 124.794 23.5888C124.894 23.4411 124.995 23.3202 125.017 23.3201C125.039 23.3201 125.057 23.7651 125.057 24.309V25.298L126.644 25.2838L128.231 25.2697L128.246 21.1834C128.264 16.6449 128.224 15.4906 128.022 14.6133C127.729 13.3374 127.135 12.3973 126.239 11.7882C125.563 11.3294 124.746 11.0073 123.839 10.8429C123.289 10.7434 121.679 10.6999 121.109 10.7693ZM63.3465 16.0155C63.3677 21.482 63.362 21.3854 63.7308 22.4794C64.2582 24.044 65.4618 25.1267 67.0873 25.4986C67.6642 25.6306 69.3571 25.625 69.8953 25.4893C71.072 25.1926 71.9811 24.4784 72.6969 23.288L72.8827 22.9791V24.1377V25.2964H74.5632H76.2436V18.1922V11.0879H74.4861H72.7286L72.7092 15.3211C72.6901 19.4638 72.6872 19.5636 72.5738 19.9944C72.1686 21.5326 71.0698 22.4073 69.5378 22.411C68.7786 22.4129 68.2424 22.2124 67.8163 21.7674C67.495 21.4319 67.3203 21.1063 67.1549 20.5347C66.9372 19.7825 66.9082 19.13 66.908 14.9739L66.9078 11.0879H65.1176H63.3274L63.3465 16.0155ZM79.6045 12.5034V13.9189H83.1788C85.1447 13.9189 86.7531 13.9376 86.7531 13.9606C86.7531 13.9834 85.0617 15.7922 82.9943 17.98L79.2355 21.9579L79.2333 23.6273L79.2311 25.2968L85.3261 25.2832L91.421 25.2697L91.4352 23.8411L91.4495 22.4126L87.4662 22.3989L83.4829 22.3852L87.2784 18.3524L91.0739 14.3196L91.0741 12.7037L91.0743 11.0879H85.3394H79.6045V12.5034ZM94.4483 18.1788L94.4618 25.2697L96.2356 25.2837L98.0094 25.2978V18.1928V11.0879H96.2221H94.4348L94.4483 18.1788ZM122.285 18.9995C121 19.1136 119.897 19.4782 119.308 19.9833C118.86 20.3665 118.71 21.1601 118.971 21.7557C119.321 22.5529 120.298 22.9902 121.589 22.9272C122.687 22.8736 123.437 22.5939 123.992 22.0302C124.546 21.4687 124.779 20.8115 124.828 19.6744L124.859 18.94L123.824 18.9473C123.255 18.9513 122.562 18.9748 122.285 18.9995Z" fill="black"/>
</svg>
