<svg width="126" height="32" viewBox="0 0 126 32" fill="none" xmlns="http://www.w3.org/2000/svg">
<path fill-rule="evenodd" clip-rule="evenodd" d="M15.1347 0.0110161C11.8512 0.344904 8.98826 1.48733 6.49466 3.45877C5.78943 4.01633 4.50782 5.29782 3.95021 6.00299C2.1798 8.2419 1.06926 10.8002 0.617326 13.6806C0.516028 14.3261 0.5 14.6442 0.5 16.0044C0.5 17.3647 0.516028 17.6827 0.617326 18.3283C1.06926 21.2087 2.1798 23.767 3.95021 26.0059C4.50782 26.7111 5.78943 27.9925 6.49466 28.5501C8.73379 30.3204 11.2923 31.4308 14.173 31.8827C14.8186 31.984 15.1366 32 16.497 32C17.8575 32 18.1755 31.984 18.8211 31.8827C21.6988 31.4313 24.2627 30.3185 26.4994 28.5501C27.2047 27.9925 28.4863 26.7111 29.0439 26.0059C30.8143 23.767 31.9248 21.2087 32.3768 18.3283C32.4781 17.6827 32.4941 17.3647 32.4941 16.0044C32.4941 14.6442 32.4781 14.3261 32.3768 13.6806C31.9248 10.8002 30.8143 8.2419 29.0439 6.00299C28.4863 5.29782 27.2047 4.01633 26.4994 3.45877C24.6495 1.99623 22.5983 0.990669 20.3173 0.428082C19.0191 0.107924 18.2998 0.0229292 16.7375 0.00513972C15.9735 -0.00356807 15.2522 -0.00095039 15.1347 0.0110161ZM15.7758 4.17617C13.6726 4.38446 12.264 4.8058 10.6735 5.70222C7.42103 7.53545 5.24223 10.7868 4.73633 14.562C4.63802 15.2957 4.65218 16.8575 4.76422 17.6311C5.53661 22.9662 9.68121 27.0472 15.0545 27.7637C15.7074 27.8508 17.2867 27.8508 17.9396 27.7637C18.2187 27.7265 18.7185 27.6363 19.0502 27.5632C23.5321 26.5764 27.07 23.0388 28.0569 18.5574C28.2614 17.6289 28.3251 17.0225 28.3251 16.0044C28.3251 14.9864 28.2614 14.3799 28.0569 13.4515C26.9989 8.64748 23.0305 4.97242 18.1532 4.27991C17.585 4.19925 16.1675 4.13738 15.7758 4.17617ZM75.2133 6.46552C73.0278 6.77884 71.2055 7.72927 69.6445 9.37012C68.3356 10.7458 67.5375 12.329 67.1886 14.2415C67.0278 15.1234 67.0278 16.8855 67.1886 17.7674C67.6093 20.0738 68.7071 21.9442 70.5384 23.4749C71.9795 24.6795 73.5624 25.3508 75.48 25.5704C76.3478 25.6699 77.8599 25.6072 78.663 25.4384C80.6216 25.027 82.1352 24.1715 83.6013 22.6474C85.3467 20.8328 86.2192 18.619 86.2192 16.0044C86.2192 14.3752 85.9072 13.0028 85.2293 11.6505C84.7876 10.7694 84.311 10.0992 83.6013 9.36147C82.1389 7.84124 80.6232 6.9843 78.663 6.56942C78.1147 6.45339 77.8462 6.42994 76.8695 6.41284C76.0833 6.39911 75.5606 6.41573 75.2133 6.46552ZM93.1647 6.41658C93.1206 6.42524 92.9043 6.46145 92.6839 6.49714C91.2112 6.73546 89.7288 7.63556 88.9473 8.76608C88.3649 9.60833 88.1468 10.3095 88.1037 11.4773C88.0705 12.3778 88.132 12.8777 88.353 13.5022C88.6575 14.3625 89.1727 14.9927 90.0522 15.5807C91.034 16.2373 91.8862 16.6101 93.6556 17.1574C97.0042 18.1932 97.8426 18.7672 97.9087 20.0697C97.9705 21.2876 97.3224 22.0889 95.9594 22.4799C95.5951 22.5845 95.417 22.5997 94.5538 22.6C93.7028 22.6003 93.4986 22.5836 93.0846 22.4793C91.7116 22.1335 90.7049 21.271 90.1194 19.9389C90.0206 19.7142 89.9261 19.5312 89.9094 19.5323C89.803 19.5391 87.3647 21.0323 87.3511 21.0988C87.321 21.2465 87.7042 22.0412 88.0712 22.5924C89.0681 24.0898 90.6131 25.0721 92.6024 25.4735C93.3966 25.6338 95.3627 25.6471 96.1566 25.4977C98.1537 25.1218 99.7469 24.0375 100.481 22.5545C100.887 21.7346 101.071 20.6031 100.967 19.574C100.844 18.3703 100.611 17.8508 99.8245 17.0346C99.2254 16.4127 98.8413 16.1172 98.2421 15.8172C97.661 15.5263 96.2687 14.9916 95.1949 14.6468C93.8988 14.2307 93.1726 13.9537 92.5643 13.6431C91.8979 13.3029 91.5628 13.0027 91.3365 12.543C91.1756 12.2162 91.1612 12.1453 91.1613 11.6784C91.1614 10.8608 91.424 10.3334 92.0427 9.9084C92.901 9.31889 94.5014 9.2058 95.6401 9.65411C96.5145 9.99842 97.3041 10.7634 97.7628 11.7109C97.8433 11.8773 97.9033 11.9416 97.9582 11.9205C98.0753 11.8756 100.342 10.5556 100.402 10.4976C100.47 10.4315 100.235 9.95563 99.8524 9.38481C98.7851 7.79182 97.0509 6.71452 95.1219 6.44628C94.7556 6.39532 93.3798 6.37443 93.1647 6.41658ZM37.3339 13.2666C37.3342 20.3819 37.3329 20.3473 37.6296 21.2934C38.3008 23.4342 40.0624 24.9351 42.5326 25.4706C43.2749 25.6316 45.2687 25.6465 46.0087 25.4967C47.4175 25.2116 48.5409 24.6503 49.46 23.7722C50.3744 22.8987 50.8821 21.9896 51.1877 20.6789C51.2978 20.2063 51.3001 20.082 51.3175 13.4535L51.3353 6.70901H49.8127H48.2901L48.2736 13.1864L48.2571 19.6638L48.1395 20.0805C47.7864 21.3321 46.9794 22.136 45.7289 22.482C45.3801 22.5786 45.1736 22.595 44.3058 22.5954C43.3489 22.5959 43.2631 22.5875 42.811 22.4488C42.1387 22.2425 41.8551 22.0763 41.3885 21.6148C41.082 21.3118 40.9354 21.1147 40.7915 20.8124C40.3806 19.9498 40.4112 20.531 40.3927 13.2399L40.3761 6.70901H38.8548H37.3336L37.3339 13.2666ZM53.3082 8.17812V9.64722H55.9261H58.5441V17.4735V25.2999H60.0667H61.5894V17.4735V9.64722H64.2073H66.8252V8.17812V6.70901H60.0667H53.3082V8.17812ZM103.476 16.0044V25.2999H104.999H106.521V16.0044V6.70901H104.999H103.476V16.0044ZM115.117 6.85523C115.047 7.03761 108.685 24.6306 108.549 25.0194L108.451 25.2999H110.117H111.784L112.425 23.4309L113.066 21.5619L116.993 21.5618L120.92 21.5617L121.561 23.4174L122.202 25.2732L123.851 25.2873L125.5 25.3014L125.467 25.1805C125.449 25.1139 123.949 20.9366 122.134 15.8976L118.834 6.73572L117.004 6.72167L115.174 6.70762L115.117 6.85523ZM10.6735 13.2743C10.6735 17.3593 10.6974 18.0582 10.8658 18.905C11.2811 20.9925 12.5065 22.2312 14.604 22.6836C15.2799 22.8294 16.9866 22.8882 17.7511 22.792C19.9935 22.5097 21.3881 21.431 21.9679 19.5303C22.2856 18.4887 22.2816 18.559 22.3053 13.6672L22.3272 9.16642H20.5909H18.8546L18.8327 13.4803C18.8161 16.7365 18.7941 17.8596 18.7427 18.0612C18.5439 18.842 18.1019 19.4168 17.5262 19.6432C17.1097 19.807 15.9792 19.822 15.5621 19.6693C14.6657 19.3413 14.2922 18.6776 14.1996 17.2485C14.1715 16.814 14.148 14.8178 14.1474 12.8125L14.1463 9.16642H12.4099H10.6735V13.2743ZM75.4689 9.46297C74.5585 9.6047 73.4778 10.0587 72.7556 10.6029C72.3305 10.9233 71.663 11.5933 71.3395 12.0245C70.8229 12.7131 70.3872 13.7494 70.2163 14.6958C70.1003 15.3391 70.1003 16.6698 70.2163 17.3131C70.3872 18.2594 70.8229 19.2958 71.3395 19.9844C71.663 20.4156 72.3305 21.0856 72.7556 21.4059C74.6015 22.7968 77.4117 23.0299 79.5895 21.9725C80.8449 21.363 82.0209 20.136 82.5939 18.8377C83.3469 17.1315 83.3469 14.8773 82.5939 13.1712C81.8788 11.5509 80.3729 10.2017 78.6952 9.67831C77.7587 9.38615 76.5013 9.30222 75.4689 9.46297ZM115.548 14.4896C114.771 16.7121 114.127 18.5631 114.118 18.603C114.103 18.6634 114.583 18.6755 116.989 18.6755C118.578 18.6755 119.878 18.6602 119.878 18.6415C119.878 18.5595 117.023 10.4486 116.994 10.4486C116.977 10.4486 116.326 12.267 115.548 14.4896Z" fill="black"/>
</svg>
