<svg width="125" height="32" viewBox="0 0 125 32" fill="none" xmlns="http://www.w3.org/2000/svg">
<path fill-rule="evenodd" clip-rule="evenodd" d="M107.383 0.0364041C101.422 0.642817 96.2619 4.50142 94.0403 10.0143C93.4171 11.5606 93.0682 13.0537 92.9301 14.7648C92.8912 15.2467 92.8773 17.7045 92.8881 22.1842L92.9043 28.8829L93.0311 29.2566C93.4049 30.3579 94.0612 31.1232 95.0493 31.61C95.9076 32.0329 95.4327 32.0114 103.46 31.9912C111.194 31.9718 110.752 31.9874 112.287 31.6797C115.221 31.0918 118.142 29.5221 120.322 27.3625C122.832 24.8753 124.418 21.7354 124.92 18.261C125.027 17.518 125.027 14.467 124.92 13.724C124.182 8.61735 121.018 4.16894 116.419 1.77462C114.822 0.943275 113.108 0.399846 111.163 0.108516C110.494 0.00816785 108.108 -0.0373625 107.383 0.0364041ZM28.4207 14.2319V24.2142L29.8284 24.2L31.236 24.1858L31.2496 14.2177L31.2631 4.24959H29.842H28.4207V14.2319ZM63.6169 4.35634C63.1162 4.45989 62.6368 4.81586 62.4184 5.24613C62.246 5.58609 62.2096 6.15925 62.3364 6.53918C62.4562 6.89836 62.828 7.30172 63.2122 7.48956C63.4743 7.61766 63.5831 7.63901 63.9738 7.63901C64.3645 7.63901 64.4733 7.61766 64.7355 7.48956C65.147 7.28838 65.5034 6.88907 65.6162 6.50267C65.7989 5.87694 65.6115 5.16724 65.1589 4.77172C64.7638 4.42643 64.1185 4.25258 63.6169 4.35634ZM69.3899 7.74576V9.53388H68.371H67.3522V10.6815V11.8291H68.3442H69.3363L69.3367 16.246C69.337 18.8824 69.3591 20.8566 69.3916 21.1433C69.625 23.2018 70.5573 24.0496 72.8294 24.2692C73.4545 24.3296 74.7187 24.3079 75.0071 24.2319C75.1272 24.2002 75.1277 24.1951 75.1277 23.1185V22.037L74.31 22.0109C73.7206 21.9921 73.4128 21.9579 73.208 21.8887C72.8095 21.754 72.4814 21.4501 72.3291 21.0749L72.2052 20.7697L72.19 16.2994L72.1749 11.8291H73.6245H75.0741V10.6815V9.53388H73.6262H72.1784V7.74576V5.95764H70.7841H69.3899V7.74576ZM107.785 6.56977C106.293 6.8168 105.108 7.41547 103.99 8.48775C102.78 9.64742 102.103 10.8851 101.859 12.3804C101.755 13.0223 101.756 14.2458 101.862 14.851C102.292 17.3056 104.254 19.4739 106.599 20.0868C107.189 20.241 108.358 20.3082 108.978 20.2235C109.177 20.1964 109.34 20.1844 109.34 20.197C109.34 20.2095 108.194 21.7672 106.793 23.6584C105.392 25.5497 104.246 27.1089 104.246 27.1233C104.246 27.1377 104.768 27.5356 105.406 28.0074C106.352 28.7073 106.578 28.8521 106.631 28.794C106.718 28.6994 114.075 18.7866 114.39 18.341C115.463 16.8192 116.101 15.1773 116.185 13.7194C116.291 11.9039 115.655 10.2615 114.3 8.84821C113.203 7.70349 112 7.00025 110.574 6.66969C109.853 6.50283 108.485 6.45383 107.785 6.56977ZM18.5496 9.40322C16.1282 9.83968 14.4513 11.4581 13.8626 13.9266C13.6732 14.7209 13.6203 15.3501 13.6208 16.8044C13.6214 18.5706 13.7208 19.3804 14.0614 20.396C14.7336 22.3998 16.1372 23.7079 18.1874 24.2414C18.9395 24.4371 20.3991 24.4875 21.2451 24.347C23.4722 23.9773 25.0247 22.723 25.6829 20.7618C25.9473 19.974 26.0725 20.0488 24.4927 20.0509L23.1387 20.0528L22.9526 20.4646C22.8104 20.7791 22.6774 20.9659 22.3895 21.255C21.7769 21.8703 21.0552 22.1415 20.0285 22.1421C19.0248 22.1427 18.3446 21.8715 17.6629 21.199C17.3016 20.8427 17.1858 20.6835 16.981 20.2626C16.6627 19.6084 16.5186 19.0149 16.4787 18.1943L16.4469 17.5404H21.2607H26.0746L26.0473 16.2727C26.0293 15.4361 25.9899 14.8416 25.9315 14.5246C25.6593 13.0453 25.1292 11.9308 24.2769 11.0465C23.4254 10.163 22.4262 9.64032 21.1353 9.40284C20.575 9.29977 19.1223 9.29999 18.5496 9.40322ZM38.7661 9.40322C36.0782 9.88767 34.3002 11.7531 33.7755 14.639C33.6761 15.1861 33.6601 15.4782 33.6576 16.7931C33.6544 18.4094 33.6927 18.838 33.9214 19.7493C34.5563 22.2784 36.331 23.9409 38.8257 24.3436C39.4918 24.4511 40.8088 24.4512 41.4311 24.3437C44.2273 23.8609 46.0044 21.9393 46.4645 18.901C46.5782 18.1501 46.5773 15.5498 46.4631 14.7841C46.0234 11.837 44.1901 9.87614 41.4311 9.4022C40.8348 9.29977 39.3368 9.30031 38.7661 9.40322ZM53.273 9.39836C50.7749 9.85009 49.0325 11.6107 48.4755 14.2457C48.2425 15.3484 48.2039 17.6596 48.3969 18.9536C48.6234 20.4716 49.2079 21.7197 50.1494 22.6959C50.8973 23.4713 51.7282 23.9476 52.8696 24.2549C53.3465 24.3833 53.4668 24.3933 54.5627 24.3962C55.8206 24.3995 56.2018 24.3503 56.9917 24.0826C58.6819 23.5099 59.8335 22.2694 60.277 20.5436C60.3342 20.321 60.381 20.0821 60.381 20.013V19.8872L59.038 19.9014L57.6949 19.9157L57.5711 20.2683C57.1584 21.4444 56.0652 22.0763 54.5627 22.0074C53.6192 21.9641 52.9515 21.6729 52.3496 21.0422C51.7638 20.4282 51.3954 19.6213 51.2305 18.5907C51.1188 17.8922 51.1548 15.2472 51.2834 14.7114C51.6719 13.0924 52.4984 12.141 53.812 11.8007C54.2593 11.6848 55.074 11.6844 55.4756 11.7998C56.4254 12.0728 57.2439 12.866 57.5134 13.7745L57.5775 13.9908L58.9524 14.0051C60.2368 14.0184 60.3273 14.0131 60.3267 13.925C60.3263 13.8731 60.2809 13.6145 60.2258 13.3503C59.8006 11.3096 58.0994 9.79084 55.8025 9.40119C55.2213 9.3026 53.8114 9.301 53.273 9.39836ZM108.348 9.40829C107.197 9.5926 106.183 10.2566 105.509 11.267C104.758 12.3946 104.692 14.0928 105.353 15.296C106.299 17.0157 108.149 17.8109 110.072 17.3242C111.449 16.9758 112.655 15.7361 112.965 14.3502C113.101 13.7385 113.051 12.6833 112.858 12.1227C112.435 10.8908 111.376 9.88302 110.137 9.5325C109.746 9.42206 108.711 9.35016 108.348 9.40829ZM2.88061e-08 9.57392C0.000160902 9.59591 1.13175 12.8926 2.51467 16.8999L5.02907 24.1858H6.59512H8.16117L10.7311 16.9799C12.1446 13.0167 13.3154 9.71964 13.3327 9.65308L13.3643 9.53212L11.9238 9.54632L10.4833 9.56057L8.55896 15.3153C7.50052 18.4804 6.61475 21.0503 6.59062 21.0263C6.56643 21.0022 5.77231 18.4847 4.82589 15.4317C3.87947 12.3787 3.08019 9.80274 3.04979 9.70736L2.9944 9.53388H1.49704C0.673524 9.53388 -0.000160845 9.55193 2.88061e-08 9.57392ZM62.5392 16.8598L62.5528 24.1858L63.9604 24.2L65.3681 24.2142V16.8741V9.53388H63.9468H62.5256L62.5392 16.8598ZM76.1466 9.59233C76.1466 9.62532 77.3334 12.9542 78.784 16.9897L81.4213 24.327L81.2995 24.7902C80.9521 26.1116 80.5078 26.7407 79.7129 27.0368C79.27 27.2017 78.5279 27.2753 77.876 27.219L77.3263 27.1714V28.2769V29.3823L77.6347 29.4262C78.2111 29.5081 79.833 29.4779 80.2918 29.3768C82.1928 28.9576 83.3153 27.7469 84.3447 25.0056C84.6017 24.321 89.6994 9.82948 89.7546 9.62644C89.7787 9.53773 89.691 9.53303 88.2656 9.54637L86.751 9.56057L84.9187 15.3519C82.9427 21.5973 83.0205 21.3578 82.9815 21.319C82.9669 21.3046 82.1264 18.653 81.1136 15.4266L79.2722 9.56057L77.7094 9.54643C76.5792 9.53618 76.1466 9.54888 76.1466 9.59233ZM19.0856 11.64C17.9537 11.9268 17.0863 12.753 16.7087 13.904C16.5499 14.3882 16.4625 14.8488 16.4625 15.2016V15.4587H19.8722H23.282L23.2439 15.045C23.0916 13.3866 22.2422 12.198 20.8609 11.7104C20.4677 11.5716 19.5058 11.5335 19.0856 11.64ZM39.4807 11.6711C37.8763 11.958 36.8569 13.2021 36.5753 15.2167C36.5012 15.7469 36.5012 17.9461 36.5753 18.4762C36.6675 19.1358 36.8251 19.6671 37.0896 20.2092C37.2948 20.6299 37.4111 20.7893 37.7721 21.1449C38.4515 21.8141 39.1155 22.0754 40.1377 22.0757C41.5033 22.0761 42.5154 21.4548 43.1122 20.2498C43.5836 19.298 43.7037 18.6029 43.7037 16.8281C43.7037 15.5229 43.6202 14.7769 43.401 14.1243C42.9814 12.8754 42.1681 12.0361 41.103 11.7529C40.7037 11.6467 39.856 11.604 39.4807 11.6711Z" fill="black"/>
</svg>
