<svg width="81" height="32" viewBox="0 0 81 32" fill="none" xmlns="http://www.w3.org/2000/svg">
<path fill-rule="evenodd" clip-rule="evenodd" d="M33.4221 0.943027C31.2217 1.45921 29.4173 1.88347 29.4122 1.88577C29.4018 1.89057 28.4879 6.794 28.4879 6.84485C28.4879 6.86309 27.8402 6.87803 27.0486 6.87803H25.6094L25.5819 6.99808C25.5668 7.06413 25.3249 8.39058 25.0445 9.94581C24.7642 11.501 24.5225 12.8151 24.5076 12.866C24.4824 12.9519 24.5827 12.9595 25.9117 12.9727L27.3429 12.9869L26.4511 17.7086C25.5116 22.6834 25.327 23.7541 25.2366 24.7512C25.1568 25.6313 25.1675 26.9351 25.2591 27.5001C25.6463 29.8876 27.239 31.3826 29.9274 31.8819C30.2035 31.9333 30.825 31.9768 31.5131 31.9932C33.1246 32.0316 34.5402 31.9069 35.7 31.6244C36.118 31.5226 36.1671 31.4975 36.1932 31.3725C36.249 31.105 37.1826 25.3106 37.1827 25.2314C37.1828 25.1634 37.108 25.1566 36.6894 25.1863C35.9094 25.2417 35.1491 25.2364 34.8076 25.1733C33.8478 24.9958 33.3954 24.3681 33.3954 23.2139C33.3954 22.3909 33.5154 21.6548 34.3752 17.2018L35.1891 12.9869L37.5687 12.973L39.9484 12.9592L39.9783 12.813C39.9947 12.7326 40.2369 11.4303 40.5164 9.91914C40.796 8.40792 41.0382 7.10569 41.0549 7.02529L41.085 6.87915L38.7197 6.86523L36.3545 6.85136L36.9715 3.42345C37.4856 0.567744 37.5747 -0.00371656 37.5057 1.81287e-05C37.4601 0.0025257 35.6225 0.426893 33.4221 0.943027ZM51.7187 6.40501C45.0258 6.98004 40.0189 12.3988 39.1297 20.0295C38.6595 24.0653 39.504 27.1315 41.6875 29.3157C43.5446 31.1735 45.9472 32.0218 49.1215 31.9403C51.1818 31.8874 52.7947 31.5032 54.5459 30.648C58.7219 28.6086 61.5626 24.3728 62.3291 19.0424C62.5212 17.7061 62.5802 15.8497 62.4642 14.7855C62.2953 13.234 61.747 11.602 60.9997 10.426C59.1291 7.48257 55.8273 6.05203 51.7187 6.40501ZM73.4075 6.39823C70.6907 6.62621 68.3451 7.53048 66.6669 8.99672C65.3799 10.1212 64.4789 11.6596 64.1111 13.3604C63.9745 13.992 63.9203 15.4656 64.0125 16.041C64.209 17.2678 64.7973 18.3982 65.7794 19.436C66.5779 20.28 67.3021 20.8199 68.8455 21.7221C70.6706 22.7889 71.2387 23.4007 71.2369 24.2977C71.2337 25.9157 69.2659 26.4037 66.0947 25.5732C65.3173 25.3696 64.2591 24.9901 63.5177 24.6492C63.2627 24.5319 63.0536 24.4528 63.0531 24.4735C63.0525 24.4942 62.6353 25.7776 62.1258 27.3256L61.1996 30.14L61.5854 30.3805C62.5413 30.9764 64.1032 31.4792 65.8279 31.7461C66.8558 31.9052 69.057 31.9444 70.2021 31.8239C73.2102 31.5075 75.5092 30.5442 77.1418 28.916C78.2898 27.771 78.917 26.5963 79.2715 24.9266C79.4296 24.1825 79.4729 22.7617 79.3576 22.1022C79.091 20.5772 78.1585 19.1596 76.5841 17.8857C76.0666 17.4669 74.6677 16.5367 74.0694 16.2135C72.4846 15.3574 71.7948 14.5724 71.9581 13.8108C72.0787 13.2482 72.3706 12.8971 72.9197 12.6538C73.3904 12.4453 73.8371 12.3753 74.7027 12.3743C75.9504 12.3728 77.185 12.6005 78.3147 13.0404C78.5909 13.1479 78.8639 13.2399 78.9212 13.2448C79.0137 13.2527 79.1206 12.9458 79.8657 10.5327C80.3277 9.03615 80.7208 7.74555 80.7392 7.66466C80.7708 7.52557 80.753 7.50882 80.4082 7.35266C79.5092 6.94563 78.276 6.63656 76.9233 6.47938C76.0498 6.37785 74.1678 6.33442 73.4075 6.39823ZM5.95078 6.94472C5.91872 7.03777 4.6969 13.4632 4.6969 13.5389C4.6969 13.5849 5.76232 13.6005 8.91542 13.6005C11.2356 13.6005 13.126 13.6189 13.1162 13.6415C13.1064 13.664 12.7744 13.9804 12.3783 14.3447C11.2731 15.3609 9.39386 17.2638 8.52917 18.2422C8.10125 18.7263 6.36419 20.7648 4.669 22.7722L1.5869 26.4219L1.16869 28.9077C0.938674 30.2749 0.750267 31.4236 0.75 31.4603C0.749627 31.5134 2.66251 31.527 10.1379 31.527C15.3015 31.527 19.5262 31.5139 19.5262 31.4979C19.5262 31.4571 20.7531 25.0181 20.7888 24.8712L20.8181 24.7512H16.1136C13.5262 24.7512 11.4172 24.732 11.427 24.7086C11.4368 24.6851 11.805 24.3412 12.2452 23.9443C14.1221 22.2524 14.9868 21.3068 19.3382 16.1881C21.0345 14.1927 22.4819 12.4956 22.5546 12.4168C22.6751 12.2863 22.7268 12.0423 23.1315 9.6958C23.376 8.27806 23.5857 7.06413 23.5974 6.99808L23.6189 6.87803H14.7963C7.7861 6.87803 5.96908 6.89174 5.95078 6.94472ZM51.4787 12.5877C50.1008 12.8272 48.9124 14.2801 48.0755 16.7483C47.4349 18.6371 47.1144 20.6209 47.1721 22.3392C47.2045 23.3038 47.3106 23.7986 47.6204 24.4304C48.2347 25.683 49.6182 26.1142 50.9186 25.4584C51.2499 25.2913 52.0199 24.5248 52.3256 24.0576C53.4994 22.2638 54.3579 18.9079 54.3729 16.0547C54.377 15.2681 54.3597 15.0477 54.2631 14.6554C53.9647 13.4439 53.2767 12.7376 52.2505 12.5893C51.8351 12.5292 51.8153 12.5292 51.4787 12.5877Z" fill="black"/>
</svg>
