<svg width="32" height="32" viewBox="0 0 32 32" fill="none" xmlns="http://www.w3.org/2000/svg">
<rect width="32" height="32" rx="16" fill="black"/>
<g clip-path="url(#clip0_1_93)">
<path fill-rule="evenodd" clip-rule="evenodd" d="M16 8C11.5835 8 8 11.5835 8 16C8 20.4165 11.5835 24 16 24C20.4078 24 24 20.4165 24 16C24 11.5835 20.4078 8 16 8ZM21.2842 11.6876C22.2386 12.8503 22.8113 14.3341 22.8287 15.9393C22.6031 15.8959 20.3471 15.436 18.0738 15.7224C18.0217 15.6096 17.9783 15.4881 17.9263 15.3666C17.7874 15.0369 17.6313 14.6985 17.4751 14.3775C19.9913 13.3536 21.1367 11.8785 21.2842 11.6876ZM16 9.18005C17.7354 9.18005 19.3232 9.83081 20.5293 10.8981C20.4078 11.0716 19.3753 12.4512 16.9458 13.3623C15.8265 11.3059 14.5857 9.62256 14.3948 9.36226C14.9067 9.24078 15.4447 9.18005 16 9.18005ZM13.0933 9.82213C13.2755 10.0651 14.4903 11.7571 15.6269 13.7701C12.4338 14.6204 9.61389 14.6031 9.3102 14.6031C9.75271 12.4859 11.1844 10.7245 13.0933 9.82213ZM9.16269 16.0087C9.16269 15.9393 9.16269 15.8699 9.16269 15.8005C9.4577 15.8091 12.7722 15.8525 16.1822 14.8287C16.3818 15.2104 16.564 15.6009 16.7376 15.9913C16.6508 16.0174 16.5553 16.0434 16.4686 16.0694C12.9458 17.2061 11.0716 20.3124 10.9154 20.5727C9.8308 19.3666 9.16269 17.7614 9.16269 16.0087ZM16 22.8373C14.4208 22.8373 12.9631 22.2994 11.8091 21.397C11.9306 21.1454 13.3189 18.4729 17.1714 17.128C17.1887 17.1193 17.1974 17.1193 17.2148 17.1107C18.1779 19.6009 18.5684 21.692 18.6725 22.2907C17.8482 22.6464 16.9458 22.8373 16 22.8373ZM19.8091 21.666C19.7397 21.2495 19.3753 19.2538 18.4816 16.7983C20.6248 16.4599 22.4989 17.0152 22.7332 17.0933C22.4382 18.9935 21.3449 20.6334 19.8091 21.666Z" fill="white"/>
</g>
<defs>
<clipPath id="clip0_1_93">
<rect width="16" height="16" fill="white" transform="translate(8 8)"/>
</clipPath>
</defs>
</svg>
