<svg width="32" height="32" viewBox="0 0 32 32" fill="none" xmlns="http://www.w3.org/2000/svg">
<rect width="32" height="32" rx="16" fill="black"/>
<path d="M17.025 16.1518C17.025 18.6656 15.0046 20.7035 12.5126 20.7035C10.0205 20.7035 8 18.6652 8 16.1518C8 13.6385 10.0203 11.6 12.5126 11.6C15.0048 11.6 17.025 13.638 17.025 16.1518Z" fill="white"/>
<path d="M21.9752 16.1518C21.9752 18.518 20.965 20.437 19.7189 20.437C18.4728 20.437 17.4626 18.518 17.4626 16.1518C17.4626 13.7856 18.4727 11.8666 19.7188 11.8666C20.9649 11.8666 21.9751 13.785 21.9751 16.1518" fill="white"/>
<path d="M23.9999 16.1518C23.9999 18.2714 23.6447 19.9907 23.2064 19.9907C22.7681 19.9907 22.413 18.2718 22.413 16.1518C22.413 14.0318 22.7682 12.313 23.2064 12.313C23.6446 12.313 23.9999 14.0317 23.9999 16.1518Z" fill="white"/>
</svg>
