<svg width="188" height="188" viewBox="0 0 188 188" fill="none" xmlns="http://www.w3.org/2000/svg">
<rect x="86.6107" y="1.65248" width="130" height="131.937" rx="65" transform="rotate(40 86.6107 1.65248)" fill="white"/>
<path d="M82.2747 67.2007L80.165 65.4305L83.9735 52.8829L85.7384 54.3639L82.4466 64.7837L82.5569 64.8762L92.2192 59.8019L93.9703 61.2713L82.2747 67.2007ZM88.3393 72.2895L86.8501 71.0399L92.6005 64.1869L94.0897 65.4365L88.3393 72.2895ZM94.7608 64.6367L93.2716 63.3871L94.6021 61.8014L96.0913 63.051L94.7608 64.6367ZM93.0498 76.477C92.3052 75.8523 91.7682 75.1667 91.4389 74.4204C91.1096 73.6741 91.0123 72.9033 91.1471 72.1078C91.2912 71.3201 91.6794 70.5494 92.3119 69.7956C92.9136 69.0786 93.5898 68.5807 94.3405 68.3021C95.1004 68.0312 95.8796 67.9801 96.678 68.1487C97.4841 68.3082 98.2594 68.7003 99.004 69.3251C99.7118 69.919 100.224 70.5684 100.542 71.2732C100.876 71.9764 100.985 72.6951 100.871 73.4291C100.773 74.1617 100.431 74.8773 99.8447 75.5759C99.7445 75.6954 99.6435 75.8065 99.5417 75.9091C99.4477 76.0025 99.349 76.092 99.2458 76.1777L92.9857 70.9249L93.6799 70.0975L98.961 74.5289L98.1468 74.7151C98.2331 74.6309 98.311 74.5474 98.3804 74.4647C98.4576 74.3728 98.5347 74.2809 98.6118 74.1889C99.1441 73.5547 99.3536 72.9316 99.2404 72.3197C99.1442 71.7063 98.7284 71.0911 97.993 70.474C97.1748 69.7875 96.433 69.4861 95.7674 69.5699C95.1018 69.6537 94.4721 70.0495 93.8782 70.7573L93.5773 71.1159C92.9757 71.8329 92.6914 72.5264 92.7245 73.1964C92.7575 73.8664 93.1877 74.5485 94.015 75.2427C94.7321 75.8444 95.3394 76.166 95.8371 76.2076C96.3516 76.2478 96.7786 76.0656 97.118 75.6612L97.2106 75.5509L98.6998 76.8004L98.5956 76.9245C98.1868 77.4117 97.6726 77.7165 97.053 77.8389C96.4503 77.9597 95.7983 77.9061 95.0969 77.6778C94.4124 77.4481 93.73 77.0478 93.0498 76.477ZM101.106 83.0023L99.2586 81.4519L102.954 72.8749L104.499 74.1708L102.381 79.0195L101.217 81.0506L101.327 81.1432L103.434 79.6684L108.015 77.1212L109.918 78.7179L108.219 83.6833L107.132 86.0142L107.242 86.1068L109.041 84.6079L113.448 81.6798L114.965 82.9525L107.132 88.0585L105.284 86.5081L107.09 81.3033L107.978 79.1814L107.868 79.0889L105.932 80.3314L101.106 83.0023ZM113.292 93.2275L111.638 91.8391L123.513 86.0601L125.608 87.8188L121.979 100.517L120.297 99.1052L122.883 90.1142L123.445 88.353L123.335 88.2605L121.698 89.1192L113.292 93.2275ZM121.855 96.3241L115.692 91.1523L116.814 89.8147L122.978 94.9866L121.855 96.3241ZM124.158 102.345L122.669 101.095L130.421 91.8568L131.91 93.1064L124.158 102.345ZM127.026 104.752L125.537 103.502L133.289 94.2635L134.778 95.513L127.026 104.752Z" fill="black"/>
<path fill-rule="evenodd" clip-rule="evenodd" d="M78.8906 113.531C79.2031 113.472 79.5109 113.439 79.8153 113.433C81.5315 113.397 82.9097 114.202 84.1605 115.252L82.8749 116.784C81.7727 115.859 80.861 115.411 79.8567 115.432C78.821 115.454 77.4583 115.978 75.4878 117.556L73.9855 116.295C75.1975 114.081 75.477 112.648 75.3182 111.624C75.1643 110.631 74.5649 109.811 73.4627 108.886L74.7483 107.354C75.9992 108.404 77.0316 109.621 77.2946 111.317C77.3413 111.618 77.3626 111.927 77.3585 112.245L94.4992 91.8177L96.0313 93.1033L78.8906 113.531Z" fill="black"/>
<rect x="86.6107" y="1.65248" width="130" height="131.937" rx="65" transform="rotate(40 86.6107 1.65248)" stroke="white" stroke-width="2"/>
</svg>
